
<!-- Generator: visioncortex VTracer 0.6.4 -->
<svg version="1.1" xmlns="http://www.w3.org/2000/svg" viewBox="0 0 1024 1024" preserveAspectRatio="xMidYMid meet">
<path d="M0 0 C11.648 10.49 19.515 22.007 24.412 36.913 C26.294 42.246 26.294 42.246 30.788 45.596 C31.984 45.937 33.181 46.277 34.413 46.627 C35.894 47.119 35.894 47.119 37.405 47.62 C38.357 47.911 39.308 48.202 40.288 48.502 C50.268 51.8 58.076 57.327 66.413 63.627 C67.651 64.501 67.651 64.501 68.913 65.393 C88.347 79.719 98.977 101.787 103.003 125.034 C103.536 129.706 103.769 134.369 103.976 139.065 C104.019 139.987 104.062 140.91 104.106 141.86 C104.212 144.116 104.314 146.371 104.413 148.627 C105.083 148.887 105.754 149.146 106.444 149.413 C129.909 159.015 146.969 174.588 156.952 198.28 C165.118 220.269 165.038 243.761 156.413 265.627 C155.664 267.223 154.909 268.815 154.147 270.405 C152.972 273.014 152.409 274.371 152.456 277.26 C153.733 280.419 155.195 283.462 156.726 286.502 C167.256 308.2 168.538 333.545 161.194 356.424 C157.19 367.714 151.273 377.458 142.038 385.252 C135.514 391.404 135.634 399.003 134.705 407.456 C133.168 418.885 125.922 431.879 117.413 439.627 C114.821 441.556 112.192 443.38 109.487 445.147 C107.3 446.464 107.3 446.464 106.413 448.627 C106.142 450.854 105.896 453.084 105.663 455.315 C103.204 475.059 94.5 490.981 79.046 503.553 C67.803 511.94 55.248 515.677 41.413 516.627 C41.32 517.295 41.227 517.963 41.132 518.651 C38.405 529.944 31.176 540.252 23.413 548.627 C22.665 549.467 21.918 550.306 21.147 551.17 C5.202 568.198 -19.154 579.831 -42.587 580.627 C-43.738 580.667 -44.889 580.707 -46.075 580.749 C-66.086 581.096 -83.194 576.869 -98.587 563.627 C-105.343 555.314 -108.84 546.743 -109.802 536.131 C-110.337 533.418 -110.337 533.418 -112.903 532.342 C-113.789 532.106 -114.674 531.87 -115.587 531.627 C-116.35 531.421 -117.113 531.215 -117.899 531.002 C-118.456 530.879 -119.013 530.755 -119.587 530.627 C-119.535 531.861 -119.535 531.861 -119.481 533.12 C-119.153 546.644 -122.262 555.497 -131.364 565.6 C-143.583 577.353 -160.705 580.157 -176.962 580.002 C-178.174 580.014 -179.385 580.026 -180.634 580.038 C-206.619 579.954 -229.692 569.109 -248.142 551.139 C-256.074 542.809 -262.216 533.85 -265.962 522.94 C-267.407 519.011 -267.407 519.011 -270.587 516.612 C-272.993 516.149 -272.993 516.149 -275.579 515.959 C-293.423 513.99 -308.073 502.696 -319.399 489.44 C-326.676 479.559 -331.828 466.324 -331.587 454.065 C-331.86 449.312 -331.86 449.312 -334.556 445.588 C-336.285 444.462 -338.044 443.38 -339.825 442.338 C-350.796 435.542 -357.111 422.709 -360.462 410.627 C-361.486 406.132 -361.711 401.855 -361.837 397.252 C-361.987 392.734 -361.987 392.734 -363.884 388.795 C-365.588 387.404 -365.588 387.404 -367.497 386.139 C-380.587 376.67 -388.259 357.391 -390.774 341.94 C-393.554 320.172 -390.462 298.609 -378.591 279.924 C-377.302 276.977 -377.622 275.666 -378.587 272.627 C-379.323 270.842 -380.097 269.072 -380.899 267.315 C-389.352 246.946 -391.631 222.554 -383.587 201.627 C-383.213 200.581 -382.839 199.534 -382.454 198.456 C-374.755 178.367 -358.763 161.238 -339.282 152.073 C-331.165 148.627 -331.165 148.627 -328.587 148.627 C-328.748 148.131 -328.909 147.635 -329.075 147.124 C-333.449 125.786 -325.798 102.177 -314.45 84.252 C-301.482 66.372 -283.444 51.608 -261.377 47.335 C-255.182 46.189 -255.182 46.189 -250.751 42.069 C-249.507 38.959 -248.547 35.835 -247.587 32.627 C-237.882 12.38 -218.76 -2.591 -197.962 -10.248 C-180.423 -15.348 -158.987 -15.249 -142.587 -6.373 C-133.618 -0.876 -126.901 5.49 -122.399 15.065 C-120.535 18.729 -120.125 19.17 -116.587 20.627 C-112.271 17.391 -111.167 14.663 -109.837 9.44 C-107.37 0.693 -102.159 -5.446 -94.462 -10.248 C-65.22 -24.54 -24.625 -21.299 0 0 Z " fill="#F3F5F5" transform="translate(624.5869140625,234.37255859375)"/>
<path d="M0 0 C7.221 6.236 12.617 14.276 13.91 23.901 C14.035 26.813 14.042 29.701 14.001 32.616 C14.002 33.71 14.002 34.803 14.003 35.93 C14 39.513 13.969 43.094 13.938 46.676 C13.93 49.173 13.924 51.669 13.92 54.166 C13.905 60.713 13.866 67.259 13.822 73.805 C13.778 80.495 13.762 87.185 13.742 93.875 C13.699 106.983 13.632 120.091 13.547 133.199 C12.636 133.201 12.636 133.201 11.707 133.204 C5.396 133.223 -0.913 133.277 -7.223 133.352 C-9.579 133.375 -11.936 133.389 -14.292 133.395 C-17.676 133.404 -21.058 133.445 -24.441 133.492 C-25.498 133.488 -26.554 133.484 -27.642 133.48 C-30.339 133.534 -32.818 133.625 -35.453 134.199 C-38.15 137.106 -38.392 138.65 -38.828 142.574 C-38.636 146.256 -38.636 146.256 -36.953 149.574 C-35.108 154.033 -34.486 157.45 -35.453 162.199 C-37.832 167.456 -41.179 172.07 -46.469 174.609 C-51.761 176.182 -57.236 176.175 -62.203 173.637 C-63.848 172.504 -63.848 172.504 -65.453 171.199 C-66.034 170.748 -66.616 170.297 -67.215 169.832 C-70.127 167.103 -71.316 165.088 -71.93 161.102 C-72.095 154.574 -71.242 150.01 -68.453 144.199 C-67.868 140.53 -67.868 140.53 -68.453 137.199 C-70.241 135.065 -71.747 134.294 -74.503 133.923 C-77.14 133.801 -79.759 133.784 -82.398 133.801 C-83.365 133.798 -84.331 133.795 -85.326 133.792 C-87.366 133.79 -89.405 133.796 -91.444 133.808 C-94.574 133.824 -97.702 133.808 -100.832 133.789 C-102.813 133.791 -104.793 133.795 -106.773 133.801 C-107.713 133.795 -108.653 133.789 -109.621 133.782 C-110.922 133.797 -110.922 133.797 -112.25 133.811 C-113.016 133.813 -113.781 133.816 -114.569 133.818 C-116.864 134.052 -116.864 134.052 -118.453 137.199 C-118.694 140.096 -118.826 142.905 -118.867 145.805 C-118.887 146.644 -118.906 147.483 -118.926 148.348 C-118.986 151.027 -119.032 153.707 -119.078 156.387 C-119.116 158.204 -119.155 160.021 -119.195 161.838 C-119.291 166.292 -119.375 170.745 -119.453 175.199 C-120.546 174.877 -121.64 174.555 -122.766 174.222 C-129.815 172.266 -136.797 171.886 -143.391 175.387 C-149.869 179.577 -154.931 184.809 -157.453 192.199 C-158.531 200.85 -158.186 207.821 -153.453 215.199 C-153.162 215.886 -152.87 216.573 -152.57 217.281 C-151.177 219.673 -149.969 220.136 -147.453 221.199 C-146.898 221.552 -146.342 221.906 -145.77 222.27 C-139.636 225.958 -133.448 225.923 -126.453 225.199 C-122.988 224.209 -122.988 224.209 -119.453 223.199 C-119.453 249.269 -119.453 275.339 -119.453 302.199 C-122.093 301.539 -124.733 300.879 -127.453 300.199 C-134.549 299.322 -141.436 300.513 -147.434 304.523 C-153.343 309.324 -156.945 314.656 -158.453 322.199 C-159.29 331.033 -157.929 338.481 -152.328 345.512 C-147.51 350.53 -142.936 352.894 -135.977 353.504 C-129.935 353.618 -125.164 353.202 -119.453 351.199 C-119.447 351.769 -119.441 352.338 -119.435 352.925 C-119.371 358.846 -119.287 364.767 -119.191 370.688 C-119.157 372.898 -119.129 375.109 -119.107 377.32 C-119.073 380.495 -119.021 383.669 -118.965 386.844 C-118.958 387.834 -118.952 388.825 -118.945 389.846 C-118.926 390.767 -118.906 391.687 -118.885 392.636 C-118.874 393.447 -118.863 394.257 -118.852 395.092 C-118.349 397.752 -117.646 398.635 -115.453 400.199 C-113.424 400.668 -113.424 400.668 -111.165 400.632 C-109.874 400.661 -109.874 400.661 -108.557 400.692 C-107.632 400.698 -106.707 400.704 -105.754 400.711 C-104.804 400.729 -103.854 400.747 -102.875 400.765 C-99.838 400.82 -96.802 400.853 -93.766 400.887 C-91.708 400.92 -89.65 400.954 -87.592 400.99 C-82.546 401.075 -77.5 401.142 -72.453 401.199 C-72.77 402.016 -72.77 402.016 -73.093 402.85 C-73.367 403.566 -73.641 404.283 -73.924 405.022 C-74.197 405.732 -74.47 406.441 -74.751 407.172 C-76.889 413.345 -76.092 419.582 -73.453 425.449 C-69.835 431.905 -64.612 437 -57.453 439.199 C-49.331 440.02 -41.226 440.438 -34.215 435.684 C-29.616 431.809 -25.735 427.206 -24.453 421.199 C-24.048 414.405 -24.113 407.9 -25.453 401.199 C-12.583 401.199 0.287 401.199 13.547 401.199 C13.547 414.399 13.547 427.599 13.547 441.199 C11.567 440.869 9.587 440.539 7.547 440.199 C-0.147 439.617 -7.155 439.257 -13.453 444.199 C-19.089 449.448 -23.077 454.716 -23.73 462.504 C-23.907 469.171 -23.836 474.4 -20.453 480.199 C-19.896 481.23 -19.339 482.262 -18.766 483.324 C-15.211 487.743 -10.814 490.412 -5.453 492.199 C-3.163 492.295 -0.87 492.329 1.422 492.324 C3.243 492.328 3.243 492.328 5.102 492.332 C8.07 492.218 10.658 491.821 13.547 491.199 C13.663 498.589 13.752 505.978 13.806 513.368 C13.832 516.8 13.867 520.232 13.924 523.665 C13.989 527.621 14.013 531.578 14.035 535.535 C14.061 536.752 14.087 537.969 14.113 539.223 C14.117 550.413 10.385 558.071 2.777 566.164 C-9.947 577.775 -26.071 580.555 -42.641 580.512 C-43.866 580.528 -45.091 580.544 -46.354 580.561 C-72.403 580.574 -95.514 569.724 -114.008 551.711 C-121.941 543.38 -128.083 534.422 -131.828 523.512 C-133.274 519.582 -133.274 519.582 -136.453 517.184 C-138.859 516.72 -138.859 516.72 -141.445 516.531 C-159.29 514.561 -173.939 503.268 -185.266 490.012 C-192.543 480.131 -197.694 466.896 -197.453 454.637 C-197.726 449.884 -197.726 449.884 -200.422 446.16 C-202.151 445.034 -203.91 443.952 -205.691 442.91 C-216.662 436.114 -222.977 423.281 -226.328 411.199 C-227.353 406.704 -227.578 402.427 -227.703 397.824 C-227.854 393.306 -227.854 393.306 -229.75 389.367 C-231.455 387.976 -231.455 387.976 -233.363 386.711 C-246.453 377.242 -254.125 357.963 -256.641 342.512 C-259.42 320.744 -256.328 299.18 -244.457 280.496 C-243.169 277.548 -243.489 276.238 -244.453 273.199 C-245.189 271.413 -245.963 269.643 -246.766 267.887 C-255.218 247.517 -257.498 223.125 -249.453 202.199 C-249.079 201.153 -248.705 200.106 -248.32 199.027 C-240.621 178.938 -224.629 161.809 -205.148 152.645 C-197.032 149.199 -197.032 149.199 -194.453 149.199 C-194.614 148.703 -194.775 148.207 -194.941 147.695 C-199.316 126.358 -191.665 102.749 -180.316 84.824 C-167.349 66.944 -149.31 52.179 -127.243 47.907 C-121.048 46.76 -121.048 46.76 -116.617 42.641 C-115.373 39.531 -114.413 36.407 -113.453 33.199 C-103.748 12.952 -84.626 -2.019 -63.828 -9.676 C-42.31 -15.933 -18.06 -13.8 0 0 Z " fill="#0D5093" transform="translate(490.453125,233.80078125)"/>
<path d="M0 0 C9.571 7.827 17.07 16.55 21.338 28.287 C22.221 30.609 23.265 32.728 24.432 34.919 C26.098 38.135 26.881 41.035 27.244 44.669 C27.904 43.679 28.564 42.689 29.244 41.669 C31.224 41.377 33.207 41.094 35.201 40.919 C37.765 40.606 39.914 39.762 42.244 38.669 C43.234 39.659 44.224 40.649 45.244 41.669 C45.904 41.339 46.564 41.009 47.244 40.669 C47.244 39.679 47.244 38.689 47.244 37.669 C48.318 37.415 49.392 37.162 50.498 36.9 C51.934 36.553 53.371 36.205 54.807 35.857 C55.511 35.691 56.216 35.526 56.941 35.355 C62.859 33.91 68.131 32.078 73.244 28.669 C73.904 28.669 74.564 28.669 75.244 28.669 C75.244 28.009 75.244 27.349 75.244 26.669 C79.204 27.659 79.204 27.659 83.244 28.669 C83.574 27.679 83.904 26.689 84.244 25.669 C84.574 26.989 84.904 28.309 85.244 29.669 C86.544 29.484 87.843 29.298 89.182 29.107 C91.396 28.791 91.396 28.791 93.244 28.669 C93.574 28.999 93.904 29.329 94.244 29.669 C94.863 29.463 95.482 29.257 96.119 29.044 C96.82 28.921 97.522 28.797 98.244 28.669 C98.832 29.396 98.832 29.396 99.432 30.138 C102.244 32.514 104.775 31.92 108.369 31.794 C110.66 31.724 112.952 31.675 115.244 31.669 C115.574 31.999 115.904 32.329 116.244 32.669 C118.444 32.252 120.63 31.76 122.807 31.232 C124.004 30.944 125.202 30.657 126.436 30.361 C127.362 30.133 128.289 29.905 129.244 29.669 C128.914 28.679 128.584 27.689 128.244 26.669 C129.564 26.339 130.884 26.009 132.244 25.669 C132.574 26.329 132.904 26.989 133.244 27.669 C133.574 27.009 133.904 26.349 134.244 25.669 C136.135 25.431 136.135 25.431 138.494 25.357 C143.349 24.95 144.936 23.245 148.244 19.669 C151.557 18.857 151.557 18.857 154.244 18.669 C154.244 17.679 154.244 16.689 154.244 15.669 C154.904 15.669 155.564 15.669 156.244 15.669 C156.574 15.009 156.904 14.349 157.244 13.669 C161.794 19.269 165.04 24.946 167.557 31.669 C167.799 32.309 168.04 32.948 168.29 33.607 C175.729 54.411 174.493 79.092 165.113 99.079 C164.739 99.86 164.364 100.642 163.979 101.447 C162.803 104.056 162.24 105.413 162.287 108.302 C163.564 111.461 165.026 114.504 166.557 117.544 C177.087 139.242 178.369 164.587 171.025 187.466 C167.021 198.756 161.104 208.5 151.869 216.294 C145.345 222.446 145.465 230.045 144.536 238.498 C143 249.927 135.753 262.921 127.244 270.669 C124.652 272.598 122.023 274.422 119.318 276.189 C117.131 277.506 117.131 277.506 116.244 279.669 C115.973 281.896 115.727 284.126 115.494 286.357 C113.035 306.101 104.331 322.023 88.877 334.595 C77.634 342.982 65.079 346.719 51.244 347.669 C51.151 348.337 51.059 349.005 50.963 349.693 C48.236 360.986 41.007 371.294 33.244 379.669 C32.496 380.509 31.749 381.348 30.979 382.212 C15.033 399.24 -9.323 410.873 -32.756 411.669 C-33.907 411.709 -35.058 411.749 -36.244 411.791 C-56.255 412.138 -73.363 407.911 -88.756 394.669 C-98.295 382.93 -99.866 371.668 -100.037 357.025 C-100.056 355.819 -100.074 354.613 -100.093 353.37 C-100.171 348.225 -100.24 343.08 -100.308 337.934 C-100.36 334.173 -100.417 330.411 -100.475 326.65 C-100.488 325.479 -100.502 324.308 -100.516 323.102 C-100.532 322.024 -100.549 320.945 -100.566 319.834 C-100.579 318.883 -100.591 317.931 -100.604 316.951 C-100.61 314.638 -100.61 314.638 -101.756 312.669 C-104.977 311.749 -107.513 311.133 -110.682 312.501 C-111.647 313.049 -111.647 313.049 -112.631 313.607 C-117.068 316.066 -120.758 316.526 -125.756 315.669 C-131.658 313.78 -135.302 310.749 -138.756 305.669 C-140.968 300.719 -141.833 295.877 -140.068 290.623 C-137.37 284.641 -133.922 281.253 -128.006 278.294 C-120.874 276.923 -114.418 278.438 -107.861 281.341 C-105.649 281.844 -105.649 281.844 -103.168 280.865 C-100.321 278.274 -100.354 277.628 -100.096 273.923 C-100.055 271.908 -100.041 269.892 -100.049 267.876 C-100.034 266.815 -100.019 265.754 -100.003 264.661 C-99.96 261.268 -99.951 257.875 -99.943 254.482 C-99.92 252.183 -99.895 249.884 -99.867 247.585 C-99.804 241.947 -99.769 236.308 -99.756 230.669 C-99.161 230.664 -98.566 230.658 -97.954 230.652 C-91.773 230.588 -85.593 230.503 -79.413 230.407 C-77.105 230.374 -74.798 230.346 -72.49 230.323 C-69.176 230.29 -65.863 230.237 -62.549 230.181 C-60.997 230.172 -60.997 230.172 -59.414 230.162 C-58.453 230.142 -57.493 230.122 -56.503 230.102 C-55.657 230.091 -54.811 230.08 -53.939 230.068 C-51.271 229.581 -50.399 228.79 -48.756 226.669 C-47.286 222.458 -48.126 219.973 -49.756 215.919 C-52.033 209.444 -52.501 204.854 -49.842 198.478 C-47.445 194.052 -44.721 191.259 -40.061 189.298 C-33.925 187.624 -27.974 187.562 -22.318 190.669 C-18.308 193.609 -16.086 196.884 -14.756 201.669 C-13.883 207.89 -14.972 212.758 -17.143 218.56 C-18.099 221.848 -17.683 224.424 -16.756 227.669 C-13.543 229.811 -12.717 229.919 -9.025 229.912 C-7.589 229.917 -7.589 229.917 -6.123 229.922 C-5.092 229.914 -4.061 229.907 -2.998 229.9 C-1.939 229.899 -0.88 229.899 0.21 229.899 C2.448 229.895 4.686 229.888 6.923 229.875 C10.362 229.857 13.801 229.855 17.24 229.855 C19.411 229.85 21.581 229.844 23.752 229.837 C24.787 229.836 25.823 229.835 26.889 229.834 C27.841 229.828 28.792 229.821 29.772 229.815 C30.613 229.811 31.455 229.807 32.322 229.803 C34.252 229.88 34.252 229.88 35.244 228.669 C35.366 227.258 35.422 225.841 35.449 224.425 C35.469 223.524 35.489 222.623 35.51 221.695 C35.527 220.716 35.543 219.737 35.561 218.728 C35.592 217.232 35.592 217.232 35.624 215.706 C35.689 212.506 35.748 209.307 35.807 206.107 C35.85 203.944 35.893 201.78 35.938 199.617 C36.045 194.301 36.147 188.985 36.244 183.669 C39.244 182.669 39.244 182.669 42.244 183.669 C51.029 184.532 57.934 183.83 65.244 178.669 C71.324 172.986 74.405 165.435 74.744 157.169 C74.393 149.39 72.211 143.085 66.432 137.732 C59.965 132.671 53.408 130.619 45.244 130.669 C42.446 131.122 39.959 131.815 37.244 132.669 C36.361 128.886 36.127 125.403 36.146 121.521 C36.151 119.694 36.151 119.694 36.156 117.83 C36.165 116.521 36.173 115.213 36.182 113.865 C36.186 112.499 36.19 111.132 36.193 109.766 C36.206 104.711 36.231 99.655 36.255 94.599 C36.274 90.324 36.29 86.049 36.3 81.774 C36.307 79.778 36.319 77.783 36.332 75.787 C36.347 69.977 36.327 64.387 35.244 58.669 C34.646 58.587 34.048 58.504 33.432 58.419 C30.642 57.463 29.899 56.041 28.244 53.669 C27.785 55.794 27.327 57.919 26.869 60.044 C26.614 61.228 26.359 62.411 26.096 63.63 C25.436 66.723 24.809 69.821 24.191 72.922 C24.013 73.814 23.835 74.705 23.652 75.624 C23.517 76.299 23.383 76.974 23.244 77.669 C7.224 77.693 -8.796 77.71 -24.816 77.721 C-32.254 77.726 -39.691 77.733 -47.129 77.745 C-53.61 77.755 -60.09 77.761 -66.571 77.764 C-70.004 77.765 -73.438 77.768 -76.871 77.775 C-80.698 77.783 -84.525 77.783 -88.351 77.783 C-90.071 77.788 -90.071 77.788 -91.826 77.794 C-93.38 77.792 -93.38 77.792 -94.966 77.79 C-95.872 77.791 -96.778 77.792 -97.712 77.792 C-99.756 77.669 -99.756 77.669 -100.756 76.669 C-100.882 74.289 -100.945 71.939 -100.959 69.556 C-100.965 68.831 -100.97 68.107 -100.976 67.36 C-100.986 65.815 -100.992 64.271 -100.996 62.727 C-101.006 60.405 -101.037 58.083 -101.068 55.761 C-101.206 36.816 -95.893 20.803 -82.756 6.669 C-60.805 -15.588 -25.256 -19.139 0 0 Z M60.244 35.669 C59.914 36.329 59.584 36.989 59.244 37.669 C59.904 37.669 60.564 37.669 61.244 37.669 C60.914 37.009 60.584 36.349 60.244 35.669 Z M65.682 21.419 C66.857 21.502 68.033 21.584 69.244 21.669 C71.244 24.669 71.244 24.669 70.932 27.294 C70.244 29.669 70.244 29.669 69.244 30.669 C67.417 30.977 65.581 31.239 63.744 31.482 C57.4 32.394 51.262 33.786 45.07 35.436 C41.12 36.437 38.176 36.875 34.244 35.669 C33.932 33.357 33.932 33.357 34.244 30.669 C38.824 26.878 44.831 26.224 50.494 25.044 C52.5 24.618 54.505 24.188 56.51 23.755 C57.394 23.57 58.279 23.385 59.19 23.194 C62.331 22.392 61.954 21.69 65.682 21.419 Z M142.244 22.669 C144.244 23.669 144.244 23.669 144.244 23.669 Z M78.244 24.669 C80.244 25.669 80.244 25.669 80.244 25.669 Z M91.244 25.669 C91.904 26.329 92.564 26.989 93.244 27.669 C92.584 27.669 91.924 27.669 91.244 27.669 C91.244 27.009 91.244 26.349 91.244 25.669 Z M99.244 25.669 C100.234 25.999 101.224 26.329 102.244 26.669 C101.914 27.329 101.584 27.989 101.244 28.669 C100.254 28.669 99.264 28.669 98.244 28.669 C98.574 27.679 98.904 26.689 99.244 25.669 Z M121.244 25.669 C123.244 26.669 123.244 26.669 123.244 26.669 Z M117.244 26.669 C118.729 27.659 118.729 27.659 120.244 28.669 C119.254 28.669 118.264 28.669 117.244 28.669 C117.244 28.009 117.244 27.349 117.244 26.669 Z M93.244 27.669 C96.244 28.669 96.244 28.669 96.244 28.669 Z M102.244 27.669 C103.234 28.164 103.234 28.164 104.244 28.669 C103.254 29.164 103.254 29.164 102.244 29.669 C102.244 29.009 102.244 28.349 102.244 27.669 Z M126.244 27.669 C128.244 28.669 128.244 28.669 128.244 28.669 Z M101.244 29.669 C102.234 29.669 103.224 29.669 104.244 29.669 C104.244 30.329 104.244 30.989 104.244 31.669 C103.254 31.669 102.264 31.669 101.244 31.669 C101.244 31.009 101.244 30.349 101.244 29.669 Z M119.244 29.669 C120.234 30.164 120.234 30.164 121.244 30.669 C120.254 31.164 120.254 31.164 119.244 31.669 C119.244 31.009 119.244 30.349 119.244 29.669 Z M109.244 30.669 C112.244 31.669 112.244 31.669 112.244 31.669 Z " fill="#DDDDDD" transform="translate(614.755859375,403.33056640625)"/>
<path d="M0 0 C7.221 6.236 12.617 14.276 13.91 23.901 C14.035 26.813 14.042 29.701 14.001 32.616 C14.002 33.71 14.002 34.803 14.003 35.93 C14 39.513 13.969 43.094 13.938 46.676 C13.93 49.173 13.924 51.669 13.92 54.166 C13.905 60.713 13.866 67.259 13.822 73.805 C13.778 80.495 13.762 87.185 13.742 93.875 C13.699 106.983 13.632 120.091 13.547 133.199 C12.636 133.201 12.636 133.201 11.707 133.204 C5.396 133.223 -0.913 133.277 -7.223 133.352 C-9.579 133.375 -11.936 133.389 -14.292 133.395 C-17.676 133.404 -21.058 133.445 -24.441 133.492 C-25.498 133.488 -26.554 133.484 -27.642 133.48 C-30.339 133.534 -32.818 133.625 -35.453 134.199 C-38.15 137.106 -38.392 138.65 -38.828 142.574 C-38.636 146.256 -38.636 146.256 -36.953 149.574 C-35.108 154.033 -34.486 157.45 -35.453 162.199 C-37.832 167.456 -41.179 172.07 -46.469 174.609 C-51.761 176.182 -57.236 176.175 -62.203 173.637 C-63.848 172.504 -63.848 172.504 -65.453 171.199 C-66.034 170.748 -66.616 170.297 -67.215 169.832 C-70.127 167.103 -71.316 165.088 -71.93 161.102 C-72.095 154.574 -71.242 150.01 -68.453 144.199 C-67.868 140.53 -67.868 140.53 -68.453 137.199 C-70.241 135.065 -71.747 134.294 -74.503 133.923 C-77.14 133.801 -79.759 133.784 -82.398 133.801 C-83.365 133.798 -84.331 133.795 -85.326 133.792 C-87.366 133.79 -89.405 133.796 -91.444 133.808 C-94.574 133.824 -97.702 133.808 -100.832 133.789 C-102.813 133.791 -104.793 133.795 -106.773 133.801 C-107.713 133.795 -108.653 133.789 -109.621 133.782 C-110.922 133.797 -110.922 133.797 -112.25 133.811 C-113.016 133.813 -113.781 133.816 -114.569 133.818 C-116.864 134.052 -116.864 134.052 -118.453 137.199 C-118.694 140.096 -118.826 142.905 -118.867 145.805 C-118.887 146.644 -118.906 147.483 -118.926 148.348 C-118.986 151.027 -119.032 153.707 -119.078 156.387 C-119.116 158.204 -119.155 160.021 -119.195 161.838 C-119.291 166.292 -119.375 170.745 -119.453 175.199 C-120.546 174.877 -121.64 174.555 -122.766 174.222 C-129.815 172.266 -136.797 171.886 -143.391 175.387 C-149.946 179.627 -154.649 184.867 -157.453 192.199 C-158.112 196.203 -158.378 200.145 -158.453 204.199 C-158.783 204.199 -159.113 204.199 -159.453 204.199 C-159.948 201.724 -159.948 201.724 -160.453 199.199 C-160.453 201.509 -160.453 203.819 -160.453 206.199 C-165.54 207.289 -169.87 207.567 -174.578 205.074 C-176.421 203.972 -176.421 203.972 -178.391 204.699 C-181.246 205.391 -182.796 204.329 -185.453 203.199 C-186.773 203.199 -188.093 203.199 -189.453 203.199 C-194.328 203.199 -198.818 202.744 -203.453 201.199 C-203.453 200.539 -203.453 199.879 -203.453 199.199 C-206.423 200.189 -206.423 200.189 -209.453 201.199 C-210.113 199.879 -210.773 198.559 -211.453 197.199 C-212.113 197.199 -212.773 197.199 -213.453 197.199 C-213.453 196.539 -213.453 195.879 -213.453 195.199 C-215.839 195.775 -218.12 196.421 -220.453 197.199 C-220.453 196.209 -220.453 195.219 -220.453 194.199 C-222.763 193.869 -225.073 193.539 -227.453 193.199 C-227.783 191.879 -228.113 190.559 -228.453 189.199 C-229.443 189.199 -230.433 189.199 -231.453 189.199 C-233.378 187.377 -234.828 185.307 -236.453 183.199 C-237.773 183.529 -239.093 183.859 -240.453 184.199 C-230.467 167.7 -214.547 155.502 -196.453 149.199 C-195.793 149.199 -195.133 149.199 -194.453 149.199 C-194.614 148.703 -194.775 148.207 -194.941 147.695 C-199.316 126.358 -191.665 102.749 -180.316 84.824 C-167.349 66.944 -149.31 52.179 -127.243 47.907 C-121.048 46.76 -121.048 46.76 -116.617 42.641 C-115.373 39.531 -114.413 36.407 -113.453 33.199 C-103.748 12.952 -84.626 -2.019 -63.828 -9.676 C-42.31 -15.933 -18.06 -13.8 0 0 Z M-219.453 197.199 C-216.453 198.199 -216.453 198.199 -216.453 198.199 Z M-179.453 205.199 C-176.453 206.199 -176.453 206.199 -176.453 206.199 Z " fill="#1FA9DB" transform="translate(490.453125,233.80078125)"/>
<path d="M0 0 C1.434 0 2.867 0.006 4.301 0.016 C5.43 0.018 5.43 0.018 6.583 0.02 C8.998 0.026 11.413 0.038 13.828 0.051 C15.461 0.056 17.095 0.061 18.728 0.065 C22.741 0.076 26.753 0.093 30.765 0.114 C31.653 3.291 31.659 4.941 30.765 8.114 C29.663 17.379 31.449 24.414 36.765 32.114 C42.043 37.533 48.228 39.2 55.578 39.489 C62.843 39.353 67.936 37.377 73.578 32.864 C78.653 26.484 80.933 20.322 80.765 12.114 C80.344 9.125 79.801 6.21 79.14 3.266 C79.017 2.556 78.893 1.845 78.765 1.114 C79.765 0.114 79.765 0.114 83.367 0 C84.97 0 86.573 0.006 88.176 0.016 C89.018 0.017 89.86 0.019 90.727 0.02 C93.427 0.026 96.128 0.038 98.828 0.051 C100.654 0.056 102.48 0.061 104.306 0.065 C108.793 0.076 113.279 0.093 117.765 0.114 C118.905 2.394 118.907 3.706 118.939 6.24 C118.952 7.091 118.966 7.942 118.98 8.819 C118.996 10.2 118.996 10.2 119.011 11.61 C119.044 13.549 119.078 15.489 119.111 17.428 C119.159 20.494 119.203 23.56 119.242 26.625 C119.282 29.579 119.333 32.532 119.386 35.485 C119.399 36.863 119.399 36.863 119.412 38.269 C119.429 39.123 119.445 39.977 119.462 40.857 C119.478 41.984 119.478 41.984 119.494 43.134 C119.662 45.432 119.662 45.432 121.765 48.114 C126.399 48.585 128.913 48.486 133.203 46.614 C138.429 44.413 142.767 44.059 148.164 45.957 C153.851 48.753 157.343 52.236 159.765 58.114 C161.686 64.895 159.954 69.56 157.078 75.739 C154.775 79.516 152.022 81.839 147.765 83.114 C140.768 83.94 136.001 83.367 129.765 80.114 C126.416 79.855 123.117 79.935 119.765 80.114 C118.854 82.849 118.618 84.575 118.56 87.401 C118.54 88.262 118.52 89.123 118.5 90.009 C118.483 90.935 118.466 91.86 118.449 92.813 C118.418 94.238 118.418 94.238 118.386 95.692 C118.321 98.728 118.262 101.765 118.203 104.801 C118.16 106.859 118.116 108.917 118.072 110.975 C117.965 116.021 117.864 121.067 117.765 126.114 C116.448 126.139 115.131 126.164 113.774 126.189 C108.893 126.284 104.012 126.384 99.131 126.486 C97.018 126.529 94.904 126.571 92.791 126.611 C89.755 126.669 86.719 126.732 83.683 126.797 C82.736 126.814 81.789 126.831 80.814 126.848 C79.933 126.868 79.052 126.888 78.145 126.908 C77.37 126.924 76.595 126.939 75.797 126.955 C73.562 127.047 73.562 127.047 70.765 128.114 C69.659 133.2 69.322 136.877 71.703 141.614 C73.991 146.247 74.901 149.997 73.765 155.114 C71.202 160.965 68.579 165.202 62.765 168.114 C57.669 169.764 52.314 170.117 47.285 168.137 C42.104 165.382 38.947 162.85 36.578 157.364 C35.006 151.074 35.261 146.903 37.828 141.051 C39.716 136.69 40.321 133.781 38.765 129.114 C35.053 126.248 30.315 126.762 25.844 126.699 C24.984 126.68 24.124 126.661 23.237 126.641 C20.497 126.581 17.756 126.535 15.015 126.489 C13.155 126.45 11.294 126.411 9.433 126.371 C4.878 126.275 0.322 126.191 -4.235 126.114 C-4.249 124.796 -4.264 123.479 -4.279 122.122 C-4.337 117.241 -4.414 112.36 -4.497 107.479 C-4.53 105.366 -4.558 103.252 -4.581 101.139 C-4.615 98.103 -4.667 95.067 -4.723 92.031 C-4.729 91.085 -4.736 90.138 -4.742 89.162 C-4.762 88.281 -4.782 87.401 -4.802 86.493 C-4.819 85.331 -4.819 85.331 -4.836 84.145 C-5.342 81.564 -6.138 80.669 -8.235 79.114 C-13.283 78.553 -16.122 79.176 -20.235 82.114 C-23.723 83.858 -27.42 83.558 -31.235 83.114 C-37.51 80.992 -41.782 77.76 -44.985 71.926 C-46.907 66.955 -47.163 62.034 -45.543 56.938 C-42.873 51.006 -39.266 47.563 -33.36 44.739 C-28.122 43.691 -23.932 44.247 -19.172 46.676 C-15.547 48.45 -13.225 48.631 -9.235 48.114 C-6.868 46.762 -6.868 46.762 -5.235 44.114 C-4.629 40.864 -4.654 37.65 -4.66 34.352 C-4.639 32.932 -4.639 32.932 -4.617 31.484 C-4.576 28.465 -4.56 25.446 -4.547 22.426 C-4.518 19.396 -4.484 16.366 -4.445 13.336 C-4.422 11.451 -4.406 9.566 -4.398 7.68 C-4.335 0.152 -4.335 0.152 0 0 Z " fill="#F4B51E" transform="translate(386.234619140625,496.886474609375)"/>
<path d="M0 0 C0 0.99 0 1.98 0 3 C2.917 4.984 4.124 4.988 7.75 4.625 C8.822 4.419 9.895 4.212 11 4 C10.67 4.66 10.34 5.32 10 6 C11.946 6.591 11.946 6.591 14 7 C14.33 6.67 14.66 6.34 15 6 C16.922 5.497 18.864 5.072 20.812 4.688 C21.871 4.464 22.929 4.241 24.02 4.012 C27 4 27 4 29.387 5.957 C29.919 6.631 30.451 7.305 31 8 C31 7.34 31 6.68 31 6 C35.455 5.505 35.455 5.505 40 5 C39.34 5.66 38.68 6.32 38 7 C39.32 7.66 40.64 8.32 42 9 C42.33 8.34 42.66 7.68 43 7 C48.75 6.875 48.75 6.875 51 8 C51.66 7.34 52.32 6.68 53 6 C53 6.66 53 7.32 53 8 C55.31 8.33 57.62 8.66 60 9 C59.34 9.33 58.68 9.66 58 10 C61.883 10.116 61.883 10.116 65.188 9.438 C66.116 9.293 67.044 9.149 68 9 C68.495 9.495 68.495 9.495 69 10 C70.114 9.814 71.228 9.629 72.375 9.438 C76 9 76 9 79 11 C79.66 10.67 80.32 10.34 81 10 C81 10.66 81 11.32 81 12 C82.238 11.979 83.475 11.959 84.75 11.938 C87.702 11.927 90.143 12.259 93 13 C93.99 12.67 94.98 12.34 96 12 C96 12.66 96 13.32 96 14 C96.928 13.938 97.856 13.876 98.812 13.812 C102 14 102 14 103.812 15.438 C104.4 16.211 104.4 16.211 105 17 C105.33 17.33 105.66 17.66 106 18 C106.99 17.505 106.99 17.505 108 17 C108 17.66 108 18.32 108 19 C108.969 18.814 109.939 18.629 110.938 18.438 C112.453 18.221 112.453 18.221 114 18 C114.33 18.33 114.66 18.66 115 19 C116.134 18.814 117.269 18.629 118.438 18.438 C120.201 18.221 120.201 18.221 122 18 C122.99 18.99 122.99 18.99 124 20 C124.66 19.34 125.32 18.68 126 18 C126.99 18 127.98 18 129 18 C129 18.66 129 19.32 129 20 C132.428 20.857 134.628 21.012 138 20 C138.99 20 139.98 20 141 20 C141 19.34 141 18.68 141 18 C141.99 17.34 142.98 16.68 144 16 C144.221 13.373 144.282 10.991 144.188 8.375 C144.174 7.669 144.16 6.962 144.146 6.234 C144.111 4.489 144.057 2.745 144 1 C144.33 1 144.66 1 145 1 C145.11 1.713 145.219 2.426 145.332 3.16 C146.732 11.614 148.65 20.982 155.93 26.449 C161.395 29.942 165.307 31.139 171.875 31.125 C173.696 31.129 173.696 31.129 175.555 31.133 C178.523 31.018 181.111 30.622 184 30 C184.116 37.389 184.205 44.779 184.259 52.169 C184.285 55.601 184.32 59.033 184.377 62.465 C184.443 66.422 184.466 70.379 184.488 74.336 C184.514 75.553 184.54 76.77 184.566 78.024 C184.57 89.214 180.839 96.871 173.23 104.965 C160.506 116.575 144.382 119.355 127.812 119.312 C126.587 119.329 125.362 119.345 124.1 119.361 C98.05 119.375 74.939 108.525 56.445 90.512 C48.513 82.181 42.371 73.223 38.625 62.312 C37.179 58.383 37.179 58.383 34 55.984 C31.594 55.521 31.594 55.521 29.008 55.332 C11.149 53.361 -3.682 42.042 -14.875 28.625 C-20.315 21.194 -24.482 13.334 -24 4 C-23.01 4.33 -22.02 4.66 -21 5 C-21 4.34 -21 3.68 -21 3 C-14.247 -0.859 -7.612 -0.285 0 0 Z M51 9 C51.66 9.66 52.32 10.32 53 11 C53 10.34 53 9.68 53 9 C52.34 9 51.68 9 51 9 Z M73 10 C73 10.66 73 11.32 73 12 C73.99 11.67 74.98 11.34 76 11 C75.01 10.67 74.02 10.34 73 10 Z M14 2 C14.33 2.66 14.66 3.32 15 4 C17.025 4.652 17.025 4.652 19 5 C17.35 5.33 15.7 5.66 14 6 C14 4.68 14 3.36 14 2 Z M76 6 C76.33 6.66 76.66 7.32 77 8 C77.66 8.33 78.32 8.66 79 9 C78.01 9 77.02 9 76 9 C76 8.01 76 7.02 76 6 Z M60 7 C61.485 7.99 61.485 7.99 63 9 C62.01 9 61.02 9 60 9 C60 8.34 60 7.68 60 7 Z M68 8 C71 9 71 9 71 9 Z M85 10 C85.66 10.66 86.32 11.32 87 12 C86.34 12 85.68 12 85 12 C85 11.34 85 10.68 85 10 Z M108 16 C108.99 16.33 109.98 16.66 111 17 C110.01 17 109.02 17 108 17 C108 16.67 108 16.34 108 16 Z M134 18 C134.33 18.66 134.66 19.32 135 20 C134.34 19.67 133.68 19.34 133 19 C133.33 18.67 133.66 18.34 134 18 Z " fill="#0D4487" transform="translate(320,695)"/>
<path d="M0 0 C40.59 0 81.18 0 123 0 C123.33 14.19 123.66 28.38 124 43 C124.99 44.65 125.98 46.3 127 48 C131.513 48.592 133.845 48.603 137.875 46.5 C142.736 44.167 147.831 43.954 152.988 45.656 C158.42 48.451 163.064 53.191 165 59 C165.743 64.818 165.877 69.575 162.312 74.438 C159.012 78.237 155.842 81.386 151 83 C146.389 83.307 143.827 83.361 139.562 81.5 C135.358 79.73 131.516 79.107 127 80 C125.002 81.571 124.105 82.473 123.601 84.993 C123.59 85.75 123.579 86.508 123.568 87.288 C123.548 88.149 123.528 89.009 123.508 89.896 C123.501 90.821 123.495 91.746 123.488 92.699 C123.461 94.124 123.461 94.124 123.434 95.579 C123.38 98.615 123.346 101.651 123.312 104.688 C123.279 106.745 123.245 108.803 123.209 110.861 C123.121 115.908 123.061 120.953 123 126 C112.11 126 101.22 126 90 126 C90.33 123.69 90.66 121.38 91 119 C91.621 110.728 91.53 103.192 87 96 C82.422 90.858 77.777 87.397 70.801 86.664 C62.417 86.57 54.727 86.855 48.16 92.613 C43.181 98.103 40.583 103.359 40.75 110.875 C40.765 112.027 40.781 113.18 40.797 114.367 C41.015 118.259 41.516 122.132 42 126 C28.14 126 14.28 126 0 126 C0 113.79 0 101.58 0 89 C1.32 89 2.64 89 4 89 C4 89.66 4 90.32 4 91 C18.392 90.811 18.392 90.811 30.543 83.617 C37.054 76.629 37.619 68.755 37.41 59.633 C36.533 51.866 32.685 47.006 26.746 42.191 C18.549 36.598 9.375 37.661 0 39 C0 26.13 0 13.26 0 0 Z " fill="#1896CD" transform="translate(516,497)"/>
<path d="M0 0 C1.253 0.003 1.253 0.003 2.531 0.006 C3.814 0.005 3.814 0.005 5.122 0.003 C6.935 0.003 8.748 0.004 10.561 0.009 C13.333 0.014 16.105 0.009 18.877 0.002 C20.637 0.003 22.397 0.004 24.156 0.006 C24.986 0.004 25.815 0.002 26.669 0 C27.447 0.003 28.224 0.006 29.025 0.01 C30.046 0.011 30.046 0.011 31.088 0.012 C33.043 0.139 33.043 0.139 37.043 1.139 C37.043 11.369 37.043 21.599 37.043 32.139 C33.342 33.064 32.409 33.221 29.043 32.139 C29.043 31.479 29.043 30.819 29.043 30.139 C16.624 30.207 16.624 30.207 6.043 36.139 C5.47 36.618 4.896 37.098 4.305 37.592 C-0.301 41.769 -1.717 45.683 -2.328 51.944 C-2.723 61.779 -2.723 61.779 1.352 70.459 C7.513 76.577 12.433 80.244 21.293 80.326 C25.471 80.305 29.189 79.526 33.195 78.381 C34.11 78.261 34.11 78.261 35.043 78.139 C37.043 80.139 37.043 80.139 37.286 82.829 C37.282 83.943 37.278 85.057 37.274 86.205 C37.272 87.413 37.27 88.62 37.268 89.864 C37.255 91.13 37.243 92.397 37.231 93.701 C37.23 95.607 37.23 95.607 37.229 97.551 C37.183 106.999 37.183 106.999 36.043 108.139 C34.709 108.245 33.369 108.285 32.03 108.297 C31.179 108.307 30.328 108.317 29.451 108.328 C28.525 108.335 27.599 108.342 26.645 108.35 C24.702 108.378 22.759 108.407 20.817 108.436 C17.74 108.477 14.663 108.514 11.586 108.54 C8.626 108.568 5.667 108.614 2.707 108.662 C1.785 108.666 0.863 108.669 -0.087 108.672 C-0.944 108.689 -1.801 108.705 -2.685 108.722 C-3.439 108.731 -4.193 108.739 -4.97 108.747 C-7.529 109.252 -8.415 110.058 -9.957 112.139 C-10.558 117.118 -10.123 120.191 -7.957 124.701 C-5.713 129.382 -4.886 133.058 -6.652 138.139 C-8.903 143.132 -11.844 146.551 -15.957 150.139 C-21.207 151.889 -27.107 152.276 -32.316 150.198 C-37.3 147.209 -41.081 143.766 -42.957 138.139 C-43.499 131.198 -42.995 125.586 -40.504 119.112 C-39.631 115.963 -40.453 113.942 -41.957 111.139 C-44.967 109.132 -45.592 108.884 -48.969 108.82 C-49.77 108.8 -50.571 108.78 -51.395 108.76 C-52.255 108.748 -53.114 108.737 -54 108.725 C-54.883 108.706 -55.767 108.686 -56.677 108.666 C-59.5 108.606 -62.322 108.56 -65.144 108.514 C-67.058 108.476 -68.971 108.437 -70.885 108.397 C-75.575 108.301 -80.266 108.217 -84.957 108.139 C-84.987 106.671 -84.987 106.671 -85.017 105.173 C-85.093 101.535 -85.182 97.897 -85.274 94.26 C-85.312 92.686 -85.347 91.113 -85.379 89.54 C-85.425 87.276 -85.482 85.012 -85.543 82.748 C-85.554 82.047 -85.566 81.346 -85.578 80.624 C-85.686 77.034 -85.788 74.092 -87.957 71.139 C-93.602 69.296 -96.738 70.749 -101.762 73.201 C-106.335 75.155 -109.93 74.481 -114.519 72.951 C-121.021 69.524 -124.744 66.271 -126.957 59.139 C-127.513 53.948 -126.894 49.51 -123.957 45.139 C-118.733 39.776 -115.283 36.993 -107.707 36.889 C-102.562 36.912 -99.439 37.515 -94.957 40.139 C-90.935 40.627 -90.935 40.627 -87.313 39.126 C-85.177 35.996 -85.475 32.637 -85.445 28.971 C-85.427 28.176 -85.409 27.381 -85.391 26.562 C-85.337 24.026 -85.303 21.489 -85.269 18.951 C-85.236 17.231 -85.202 15.51 -85.166 13.789 C-85.078 9.573 -85.018 5.357 -84.957 1.139 C-74.727 1.139 -64.497 1.139 -53.957 1.139 C-54.287 4.109 -54.617 7.079 -54.957 10.139 C-55.575 17.271 -54.979 23.055 -50.957 29.139 C-45.73 35.081 -40.863 37.743 -32.91 38.385 C-26.071 38.645 -20.465 38.475 -14.957 34.139 C-10.024 29.451 -6.249 25.056 -5.726 18.053 C-5.801 12.307 -6.055 6.81 -6.957 1.139 C-5.101 -0.717 -2.469 0.01 0 0 Z " fill="#1996CE" transform="translate(466.9568634033203,377.8610534667969)"/>
<path d="M0 0 C2.041 1.616 4.041 3.286 6 5 C6 5.66 6 6.32 6 7 C6.99 7 7.98 7 9 7 C11 9 11 9 12 11 C14.527 11.656 14.527 11.656 17 12 C17.33 11.01 17.66 10.02 18 9 C18.495 10.98 18.495 10.98 19 13 C19.99 13 20.98 13 22 13 C22.66 13 23.32 13 24 13 C24 13.66 24 14.32 24 15 C24.99 14.67 25.98 14.34 27 14 C27.495 16.475 27.495 16.475 28 19 C29.392 18.443 29.392 18.443 30.812 17.875 C31.864 17.586 32.916 17.298 34 17 C34.99 17.66 35.98 18.32 37 19 C41.103 20.078 41.103 20.078 45 19 C47 19.667 49 20.333 51 21 C51.99 20.505 51.99 20.505 53 20 C53.784 20.33 54.567 20.66 55.375 21 C57.873 22.25 57.873 22.25 60 21.438 C62 21 62 21 64.25 22.438 C68.079 24.613 70.634 24.291 75 24 C75.495 23.505 75.495 23.505 76 23 C75.979 22.031 75.959 21.061 75.938 20.062 C76 17 76 17 78 15 C78.098 15.629 78.196 16.258 78.297 16.906 C79.345 22.907 81.039 27.703 84 33 C84.289 33.694 84.577 34.387 84.875 35.102 C86.278 37.468 87.497 37.943 90 39 C90.833 39.53 90.833 39.53 91.684 40.07 C97.817 43.759 104.005 43.724 111 43 C113.31 42.34 115.62 41.68 118 41 C118 67.07 118 93.14 118 120 C117.34 119.67 116.68 119.34 116 119 C116 117.02 116 115.04 116 113 C115.074 113.394 115.074 113.394 114.129 113.797 C107.293 116.336 107.293 116.336 103.473 115.344 C101.96 114.639 100.468 113.886 99.008 113.078 C97.003 112.002 95.219 111.458 93 111 C92.67 111.66 92.34 112.32 92 113 C91.01 113.66 90.02 114.32 89 115 C88.897 115.763 88.794 116.526 88.688 117.312 C87.66 121.328 85.279 122.558 82 125 C81.67 124.01 81.34 123.02 81 122 C78.999 119.635 78.032 119.011 75 118 C72.857 118.389 72.857 118.389 71 119 C71.33 118.34 71.66 117.68 72 117 C69.69 116.01 67.38 115.02 65 114 C65 114.66 65 115.32 65 116 C61.163 116 59.424 115.442 56 114 C55.34 114 54.68 114 54 114 C53.505 115.485 53.505 115.485 53 117 C49.37 116.34 45.74 115.68 42 115 C42.99 114.34 43.98 113.68 45 113 C42.69 112.34 40.38 111.68 38 111 C38 110.34 38 109.68 38 109 C37.01 109.33 36.02 109.66 35 110 C34.34 109.01 33.68 108.02 33 107 C31.68 108.65 30.36 110.3 29 112 C28.01 111.505 28.01 111.505 27 111 C26.375 108.938 26.375 108.938 26 107 C25.67 107.33 25.34 107.66 25 108 C22.661 107.713 20.326 107.381 18 107 C17.67 105.68 17.34 104.36 17 103 C17 104.32 17 105.64 17 107 C14.667 107 12.333 107 10 107 C10 106.34 10 105.68 10 105 C9.423 105.351 8.845 105.701 8.25 106.062 C5.642 107.149 4.606 106.931 2 106 C1.34 106.99 0.68 107.98 0 109 C-0.66 108.34 -1.32 107.68 -2 107 C-4.967 108.837 -4.967 108.837 -7 111 C-8.65 110.34 -10.3 109.68 -12 109 C-10.971 105.483 -9.764 102.516 -7.812 99.438 C-5.773 95.569 -5.842 95.001 -7 91 C-7.736 89.214 -8.51 87.444 -9.312 85.688 C-17.758 65.335 -20.065 40.907 -12 20 C-11.591 18.895 -11.183 17.791 -10.762 16.652 C-5.724 3.816 -5.724 3.816 0 0 Z M44 107 C43.34 108.32 42.68 109.64 42 111 C43.32 111 44.64 111 46 111 C45.34 109.68 44.68 108.36 44 107 Z M51 112 C50.01 112.33 49.02 112.66 48 113 C48 113.66 48 114.32 48 115 C49.32 114.67 50.64 114.34 52 114 C51.67 113.34 51.34 112.68 51 112 Z M8 106 C8.33 106.66 8.66 107.32 9 108 C8.01 107.67 7.02 107.34 6 107 C6.66 106.67 7.32 106.34 8 106 Z M33 109 C33.33 109.66 33.66 110.32 34 111 C33.34 110.67 32.68 110.34 32 110 C32.33 109.67 32.66 109.34 33 109 Z M92 113 C94 114 94 114 94 114 Z M76 119 C78 120 78 120 78 120 Z M75 121 C76.32 121.33 77.64 121.66 79 122 C77.68 122.33 76.36 122.66 75 123 C75 122.34 75 121.68 75 121 Z M80 125 C80.66 125 81.32 125 82 125 C82 125.66 82 126.32 82 127 C81.34 127 80.68 127 80 127 C80 126.34 80 125.68 80 125 Z " fill="#126FAE" transform="translate(253,416)"/>
<path d="M0 0 C0.99 0.66 1.98 1.32 3 2 C3.825 1.814 4.65 1.629 5.5 1.438 C6.325 1.293 7.15 1.149 8 1 C9.625 2.438 9.625 2.438 11 4 C11.99 4 12.98 4 14 4 C14.33 3.34 14.66 2.68 15 2 C19 2 19 2 22 4 C22.495 4.99 22.495 4.99 23 6 C23.66 6 24.32 6 25 6 C25.33 5.01 25.66 4.02 26 3 C26.99 3.99 26.99 3.99 28 5 C29.326 5.362 30.659 5.697 32 6 C32.495 6.495 32.495 6.495 33 7 C33.66 6.34 34.32 5.68 35 5 C35.99 5.99 35.99 5.99 37 7 C38.64 6.474 38.64 6.474 40.312 5.938 C44.213 4.946 45.275 5.367 48.875 6.688 C51.767 7.113 53.417 6.291 56 5 C56.66 4.34 57.32 3.68 58 3 C58 3.66 58 4.32 58 5 C62.293 6.263 64.878 5.63 69 4 C69.33 5.32 69.66 6.64 70 8 C68.68 8.66 67.36 9.32 66 10 C67.65 9.67 69.3 9.34 71 9 C71 9.66 71 10.32 71 11 C72.98 10.67 74.96 10.34 77 10 C76.67 8.68 76.34 7.36 76 6 C76.763 6.495 77.526 6.99 78.312 7.5 C80.924 9.244 80.924 9.244 84 9 C86.211 9.469 87.973 9.987 90 11 C90 11.66 90 12.32 90 13 C93.96 12.67 97.92 12.34 102 12 C102.33 12.66 102.66 13.32 103 14 C104.98 13.34 106.96 12.68 109 12 C110.65 13.98 112.3 15.96 114 18 C114.99 17.67 115.98 17.34 117 17 C116.67 15.35 116.34 13.7 116 12 C116.99 12.495 116.99 12.495 118 13 C117.67 13.66 117.34 14.32 117 15 C117.99 14.67 118.98 14.34 120 14 C120.99 16.475 120.99 16.475 122 19 C122.33 19 122.66 19 123 19 C123.33 18.34 123.66 17.68 124 17 C133.333 17 133.333 17 137 18 C138.114 18.278 138.114 18.278 139.25 18.562 C139.827 18.707 140.405 18.851 141 19 C141 18.34 141 17.68 141 17 C141.66 17 142.32 17 143 17 C143.33 17.66 143.66 18.32 144 19 C144.99 19 145.98 19 147 19 C147.33 20.65 147.66 22.3 148 24 C148.33 23.01 148.66 22.02 149 21 C150.98 21.99 150.98 21.99 153 23 C153 22.34 153 21.68 153 21 C153.99 20.67 154.98 20.34 156 20 C156 20.66 156 21.32 156 22 C156.66 22.33 157.32 22.66 158 23 C157.67 24.98 157.34 26.96 157 29 C158.65 29 160.3 29 162 29 C162.66 27.68 163.32 26.36 164 25 C165.65 25.33 167.3 25.66 169 26 C169 26.66 169 27.32 169 28 C171.229 28.054 173.458 28.093 175.688 28.125 C176.929 28.148 178.17 28.171 179.449 28.195 C182.825 28.01 184.977 27.425 188 26 C188.33 26 188.66 26 189 26 C189 24.02 189 22.04 189 20 C189.66 20 190.32 20 191 20 C191 23.3 191 26.6 191 30 C189.562 30.034 188.123 30.069 186.641 30.104 C181.312 30.238 175.985 30.404 170.657 30.58 C168.35 30.651 166.042 30.714 163.734 30.768 C160.419 30.847 157.107 30.958 153.793 31.074 C152.241 31.101 152.241 31.101 150.658 31.129 C148.01 31.238 145.577 31.381 143 32 C140.327 34.916 140.06 36.458 139.625 40.375 C139.817 44.057 139.817 44.057 141.5 47.375 C143.345 51.834 143.967 55.25 143 60 C140.621 65.256 137.274 69.87 131.984 72.41 C126.692 73.983 121.217 73.976 116.25 71.438 C114.605 70.305 114.605 70.305 113 69 C112.419 68.549 111.837 68.098 111.238 67.633 C108.326 64.904 107.137 62.889 106.523 58.902 C106.359 52.375 107.211 47.811 110 42 C110.585 38.331 110.585 38.331 110 35 C108.212 32.866 106.706 32.095 103.95 31.724 C101.313 31.601 98.694 31.584 96.055 31.602 C95.088 31.599 94.122 31.596 93.127 31.593 C91.088 31.591 89.048 31.596 87.009 31.609 C83.879 31.625 80.751 31.609 77.621 31.59 C75.641 31.592 73.66 31.596 71.68 31.602 C70.74 31.595 69.801 31.589 68.832 31.583 C67.531 31.597 67.531 31.597 66.203 31.612 C65.437 31.614 64.672 31.617 63.884 31.619 C61.589 31.853 61.589 31.853 60 35 C59.759 37.897 59.627 40.705 59.586 43.605 C59.567 44.445 59.547 45.284 59.527 46.149 C59.467 48.828 59.421 51.508 59.375 54.188 C59.337 56.005 59.298 57.822 59.258 59.639 C59.162 64.092 59.078 68.546 59 73 C57.907 72.678 56.813 72.355 55.687 72.023 C48.638 70.067 41.656 69.687 35.062 73.188 C28.507 77.428 23.804 82.667 21 90 C20.341 94.003 20.075 97.946 20 102 C19.67 102 19.34 102 19 102 C18.67 100.35 18.34 98.7 18 97 C18 99.31 18 101.62 18 104 C12.913 105.09 8.583 105.368 3.875 102.875 C2.032 101.773 2.032 101.773 0.062 102.5 C-2.793 103.192 -4.343 102.129 -7 101 C-8.32 101 -9.64 101 -11 101 C-15.875 101 -20.364 100.545 -25 99 C-25 98.34 -25 97.68 -25 97 C-27.97 97.99 -27.97 97.99 -31 99 C-31.66 97.68 -32.32 96.36 -33 95 C-33.66 95 -34.32 95 -35 95 C-35 94.34 -35 93.68 -35 93 C-37.386 93.576 -39.667 94.222 -42 95 C-42 94.01 -42 93.02 -42 92 C-45.465 91.505 -45.465 91.505 -49 91 C-49.33 89.68 -49.66 88.36 -50 87 C-50.99 87 -51.98 87 -53 87 C-54.925 85.178 -56.375 83.108 -58 81 C-59.98 81.495 -59.98 81.495 -62 82 C-52.014 65.501 -36.094 53.302 -18 47 C-17.34 47 -16.68 47 -16 47 C-16.161 46.504 -16.322 46.007 -16.488 45.496 C-17.2 42.024 -17.191 38.592 -17.188 35.062 C-17.187 34.312 -17.187 33.561 -17.187 32.788 C-17.12 26.07 -16.291 19.594 -15 13 C-14.856 12.083 -14.711 11.167 -14.562 10.223 C-14 8 -14 8 -11.938 6.688 C-11.298 6.461 -10.659 6.234 -10 6 C-9.505 7.485 -9.505 7.485 -9 9 C-8.01 9 -7.02 9 -6 9 C-6 8.34 -6 7.68 -6 7 C-6.66 6.67 -7.32 6.34 -8 6 C-4.375 3 -4.375 3 -1 3 C-0.67 2.01 -0.34 1.02 0 0 Z M0 4 C-0.66 4.66 -1.32 5.32 -2 6 C-1.01 6 -0.02 6 1 6 C0.67 5.34 0.34 4.68 0 4 Z M40 7 C40.66 7.66 41.32 8.32 42 9 C42 8.34 42 7.68 42 7 C41.34 7 40.68 7 40 7 Z M55 7 C54.67 7.66 54.34 8.32 54 9 C54.99 8.67 55.98 8.34 57 8 C56.34 7.67 55.68 7.34 55 7 Z M65 7 C66 9 66 9 66 9 Z M35 8 C35 11 35 11 35 11 Z M44 8 C48 9 48 9 48 9 Z M51 8 C50.01 9.485 50.01 9.485 49 11 C50.32 10.34 51.64 9.68 53 9 C52.34 8.67 51.68 8.34 51 8 Z M57 8 C57 8.66 57 9.32 57 10 C56.01 10.495 56.01 10.495 55 11 C56.32 11 57.64 11 59 11 C58.67 10.01 58.34 9.02 58 8 C57.67 8 57.34 8 57 8 Z M63 7 C62.01 7.33 61.02 7.66 60 8 C60 8.66 60 9.32 60 10 C61.32 9.67 62.64 9.34 64 9 C63.67 8.34 63.34 7.68 63 7 Z M26 9 C25.67 9.66 25.34 10.32 25 11 C25.99 10.67 26.98 10.34 28 10 C27.34 9.67 26.68 9.34 26 9 Z M42 9 C41.67 9.66 41.34 10.32 41 11 C41.99 10.67 42.98 10.34 44 10 C43.34 9.67 42.68 9.34 42 9 Z M83 11 C82.34 11.66 81.68 12.32 81 13 C82.65 12.67 84.3 12.34 86 12 C85.01 11.67 84.02 11.34 83 11 Z M11 2 C13 3 13 3 13 3 Z M21 2 C23 3 23 3 23 3 Z M30 4 C32 5 32 5 32 5 Z M75 4 C75.33 5.32 75.66 6.64 76 8 C75.01 8.495 75.01 8.495 74 9 C74 8.34 74 7.68 74 7 C73.01 7.33 72.02 7.66 71 8 C71 7.34 71 6.68 71 6 C72.32 5.34 73.64 4.68 75 4 Z M72 9 C74 10 74 10 74 10 Z M104 12 C106 13 106 13 106 13 Z M110 12 C112 13 112 13 112 13 Z M121 12 C122.32 12 123.64 12 125 12 C125 12.66 125 13.32 125 14 C123.68 14.33 122.36 14.66 121 15 C121 14.01 121 13.02 121 12 Z M112 13 C112.99 13 113.98 13 115 13 C115.33 14.32 115.66 15.64 116 17 C113.525 16.01 113.525 16.01 111 15 C111.33 14.34 111.66 13.68 112 13 Z M123 15 C126 16 126 16 126 16 Z M159 27 C161 28 161 28 161 28 Z M-41 95 C-38 96 -38 96 -38 96 Z M-1 103 C2 104 2 104 2 104 Z " fill="#1996CE" transform="translate(312,336)"/>
<path d="M0 0 C0.66 0 1.32 0 2 0 C2.681 0.712 2.681 0.712 3.375 1.438 C5.257 3.247 6.414 3.75 9 4 C9.66 3.34 10.32 2.68 11 2 C11 2.66 11 3.32 11 4 C11.99 4.33 12.98 4.66 14 5 C13.34 5 12.68 5 12 5 C12.66 6.32 13.32 7.64 14 9 C15.108 7.117 15.108 7.117 16 5 C15.505 4.01 15.505 4.01 15 3 C16.32 2.67 17.64 2.34 19 2 C19 2.66 19 3.32 19 4 C19.99 4.33 20.98 4.66 22 5 C21.67 5.33 21.34 5.66 21 6 C21.66 6 22.32 6 23 6 C23 6.66 23 7.32 23 8 C25.97 8.33 28.94 8.66 32 9 C31.34 9.66 30.68 10.32 30 11 C33.448 11.862 35.617 12.025 39 11 C40.998 10.654 42.998 10.319 45 10 C45.495 10.99 45.495 10.99 46 12 C46.66 11.67 47.32 11.34 48 11 C48.495 11.495 48.495 11.495 49 12 C49.66 11.34 50.32 10.68 51 10 C51 10.66 51 11.32 51 12 C51.949 12.124 52.897 12.247 53.875 12.375 C57 13 57 13 59 15 C61.603 14.68 61.603 14.68 64 14 C64 15.32 64 16.64 64 18 C65.485 18.495 65.485 18.495 67 19 C67.495 19.99 67.495 19.99 68 21 C70.604 18.813 70.604 18.813 73 16 C73.04 14.334 73.044 12.666 73 11 C74.875 9.312 74.875 9.312 77 8 C77.66 7.34 78.32 6.68 79 6 C79 6.66 79 7.32 79 8 C80.268 8.155 80.268 8.155 81.562 8.312 C85 9 85 9 88.562 10.688 C91.85 12.344 91.85 12.344 94.688 11.188 C95.451 10.796 96.214 10.404 97 10 C98.32 10 99.64 10 101 10 C101.33 8.68 101.66 7.36 102 6 C102 9.3 102 12.6 102 16 C101.031 15.835 100.061 15.67 99.062 15.5 C90.52 14.331 82.434 14.367 75.02 19.324 C69.11 24.125 65.509 29.457 64 37 C63.164 45.834 64.524 53.282 70.125 60.312 C74.943 65.331 79.517 67.695 86.477 68.305 C92.712 68.423 96.982 68.006 103 66 C103 80.19 103 94.38 103 109 C102.34 107.68 101.68 106.36 101 105 C100.072 105.495 99.144 105.99 98.188 106.5 C95 108 95 108 92 108 C92 107.34 92 106.68 92 106 C90.68 106 89.36 106 88 106 C87.34 105.01 86.68 104.02 86 103 C85.257 103.227 84.515 103.454 83.75 103.688 C81 104 81 104 78.688 102.562 C78.131 102.047 77.574 101.531 77 101 C77 101.66 77 102.32 77 103 C75.02 103.33 73.04 103.66 71 104 C71 103.34 71 102.68 71 102 C69.02 102.66 67.04 103.32 65 104 C64.34 103.34 63.68 102.68 63 102 C61.326 102.295 59.661 102.639 58 103 C53.511 103.254 49.393 103.004 45 102 C42.792 102 40.583 102.024 38.375 102.062 C35 102 35 102 34 101 C33.072 101.278 33.072 101.278 32.125 101.562 C31.073 101.779 31.073 101.779 30 102 C28.515 101.01 28.515 101.01 27 100 C27 99.34 27 98.68 27 98 C26.134 98.495 26.134 98.495 25.25 99 C23 100 23 100 19 100 C19 99.34 19 98.68 19 98 C18.134 98.495 18.134 98.495 17.25 99 C15 100 15 100 11 100 C11 99.34 11 98.68 11 98 C10.072 98.351 9.144 98.701 8.188 99.062 C5 100 5 100 2 99 C-0.341 99.278 -2.676 99.605 -5 100 C-5 99.34 -5 98.68 -5 98 C-5.66 98 -6.32 98 -7 98 C-6.67 100.31 -6.34 102.62 -6 105 C-19.371 96.75 -28.109 81.18 -32.48 66.316 C-36.742 47.316 -37.185 24.736 -28 7 C-25.836 5.613 -25.836 5.613 -24 5 C-24 5.66 -24 6.32 -24 7 C-23.01 7 -22.02 7 -21 7 C-21.33 6.34 -21.66 5.68 -22 5 C-21.196 4.876 -20.391 4.753 -19.562 4.625 C-18.717 4.419 -17.871 4.212 -17 4 C-16.67 3.34 -16.34 2.68 -16 2 C-15.67 2.33 -15.34 2.66 -15 3 C-14.01 2.34 -13.02 1.68 -12 1 C-12 1.66 -12 2.32 -12 3 C-10.02 3.66 -8.04 4.32 -6 5 C-6.33 4.01 -6.66 3.02 -7 2 C-5.68 2 -4.36 2 -3 2 C-3 2.66 -3 3.32 -3 4 C-2.01 3.67 -1.02 3.34 0 3 C0 2.01 0 1.02 0 0 Z M18 6 C17.67 6.66 17.34 7.32 17 8 C17.66 8 18.32 8 19 8 C18.67 7.34 18.34 6.68 18 6 Z M60 18 C60 18.66 60 19.32 60 20 C61.32 19.67 62.64 19.34 64 19 C62.68 18.67 61.36 18.34 60 18 Z M65 22 C65 22.66 65 23.32 65 24 C65.66 24 66.32 24 67 24 C67 23.34 67 22.68 67 22 C66.34 22 65.68 22 65 22 Z M0 96 C0.66 96.66 1.32 97.32 2 98 C2 97.34 2 96.68 2 96 C1.34 96 0.68 96 0 96 Z M5 97 C6 99 6 99 6 99 Z M-9 3 C-7 4 -7 4 -7 4 Z M29 4 C29.66 5.32 30.32 6.64 31 8 C29.68 7.67 28.36 7.34 27 7 C27.66 6.01 28.32 5.02 29 4 Z M36 9 C36.33 9.66 36.66 10.32 37 11 C35.68 11.33 34.36 11.66 33 12 C33 11.34 33 10.68 33 10 C33.99 9.67 34.98 9.34 36 9 Z M15 100 C18 101 18 101 18 101 Z M23 100 C26 101 26 101 26 101 Z M67 104 C67.99 104 68.98 104 70 104 C69.67 104.66 69.34 105.32 69 106 C68.34 105.34 67.68 104.68 67 104 Z M75 104 C79 105 79 105 79 105 Z M83 104 C84.98 104.495 84.98 104.495 87 105 C85.35 105.33 83.7 105.66 82 106 C82.33 105.34 82.66 104.68 83 104 Z " fill="#0E5FA1" transform="translate(268,519)"/>
<path d="M0 0 C14.379 11.758 22.168 25.847 25.932 43.982 C26.676 52.768 26.353 60.963 24.729 69.615 C24.587 70.393 24.445 71.172 24.298 71.974 C23.951 73.874 23.598 75.772 23.244 77.669 C7.224 77.693 -8.796 77.71 -24.816 77.721 C-32.254 77.726 -39.691 77.733 -47.129 77.745 C-53.61 77.755 -60.09 77.761 -66.571 77.764 C-70.004 77.765 -73.438 77.768 -76.871 77.775 C-80.698 77.783 -84.525 77.783 -88.351 77.783 C-90.071 77.788 -90.071 77.788 -91.826 77.794 C-93.38 77.792 -93.38 77.792 -94.966 77.79 C-95.872 77.791 -96.778 77.792 -97.712 77.792 C-99.756 77.669 -99.756 77.669 -100.756 76.669 C-100.882 74.289 -100.945 71.939 -100.959 69.556 C-100.965 68.831 -100.97 68.107 -100.976 67.36 C-100.986 65.815 -100.992 64.271 -100.996 62.727 C-101.006 60.405 -101.037 58.083 -101.068 55.761 C-101.206 36.816 -95.893 20.803 -82.756 6.669 C-60.805 -15.588 -25.256 -19.139 0 0 Z " fill="#1270AE" transform="translate(614.755859375,403.33056640625)"/>
<path d="M0 0 C2.396 2.396 2.365 3.747 3 7 C5.862 11.293 9.127 11.571 14 12.688 C17.22 13.023 19.846 12.676 23 12 C23 12.66 23 13.32 23 14 C24.145 13.505 24.145 13.505 25.312 13 C28 12 28 12 31 12 C31 12.66 31 13.32 31 14 C32.98 13.34 34.96 12.68 37 12 C37 12.66 37 13.32 37 14 C38.083 14.186 38.083 14.186 39.188 14.375 C41.957 14.99 44.397 15.884 47 17 C46.505 15.515 46.505 15.515 46 14 C46.99 14 47.98 14 49 14 C49 15.32 49 16.64 49 18 C52.291 17.621 52.291 17.621 55 16 C55.66 16 56.32 16 57 16 C57 16.66 57 17.32 57 18 C60.291 17.621 60.291 17.621 63 16 C65.691 16.176 68.329 16.618 71 17 C71 16.01 71 15.02 71 14 C72.32 14.33 73.64 14.66 75 15 C74.688 17.375 74.688 17.375 74 20 C73.01 20.66 72.02 21.32 71 22 C70.417 24.656 70.417 24.656 70.312 27.625 C70.247 28.628 70.181 29.631 70.113 30.664 C70.076 31.435 70.039 32.206 70 33 C70.66 31.02 71.32 29.04 72 27 C72.33 27 72.66 27 73 27 C73 41.19 73 55.38 73 70 C62.11 70 51.22 70 40 70 C40.33 67.69 40.66 65.38 41 63 C41.621 54.728 41.53 47.192 37 40 C32.422 34.858 27.777 31.397 20.801 30.664 C12.417 30.57 4.727 30.855 -1.84 36.613 C-6.819 42.103 -9.417 47.359 -9.25 54.875 C-9.235 56.027 -9.219 57.18 -9.203 58.367 C-8.985 62.259 -8.484 66.132 -8 70 C-21.86 70 -35.72 70 -50 70 C-50 57.79 -50 45.58 -50 33 C-48.68 33 -47.36 33 -46 33 C-46 33.66 -46 34.32 -46 35 C-34.806 34.849 -26.641 34.39 -18.188 26.312 C-13.323 18.947 -11.373 11.773 -11 3 C-9.523 2.639 -8.043 2.286 -6.562 1.938 C-5.739 1.74 -4.915 1.543 -4.066 1.34 C-3.044 1.172 -3.044 1.172 -2 1 C-1.505 1.495 -1.505 1.495 -1 2 C-0.67 1.34 -0.34 0.68 0 0 Z M5 9 C9 10 9 10 9 10 Z M10 10 C10.99 10.33 11.98 10.66 13 11 C12.01 11 11.02 11 10 11 C10 10.67 10 10.34 10 10 Z M41 12 C42.32 12.33 43.64 12.66 45 13 C43.68 13.33 42.36 13.66 41 14 C41 13.34 41 12.68 41 12 Z " fill="#1586C1" transform="translate(566,553)"/>
<path d="M0 0 C-0.66 0.99 -1.32 1.98 -2 3 C-1.34 3 -0.68 3 0 3 C1.333 4.333 2.667 5.667 4 7 C4.908 7.536 5.815 8.072 6.75 8.625 C7.493 9.079 8.235 9.533 9 10 C9 10.66 9 11.32 9 12 C10.32 11.67 11.64 11.34 13 11 C13 11.66 13 12.32 13 13 C14.423 13.186 14.423 13.186 15.875 13.375 C19 14 19 14 21 16 C22.338 15.688 23.671 15.352 25 15 C26.333 15.333 27.667 15.667 29 16 C31.187 15.621 31.187 15.621 33 15 C33 15.66 33 16.32 33 17 C35.31 17.33 37.62 17.66 40 18 C40.495 16.515 40.495 16.515 41 15 C41.082 15.619 41.165 16.238 41.25 16.875 C41.806 19.148 41.806 19.148 43.875 20.188 C47.46 21.558 49.321 22.142 53 21 C53 21.99 53 22.98 53 24 C51.948 24.495 50.896 24.99 49.812 25.5 C45.353 28.028 43.322 31.547 41 36 C40.638 36.614 40.276 37.227 39.902 37.859 C38.717 40.671 38.573 43.213 38.375 46.25 C38.3 47.328 38.225 48.405 38.148 49.516 C38.099 50.335 38.05 51.155 38 52 C37.67 52 37.34 52 37 52 C36.67 50.35 36.34 48.7 36 47 C36 49.31 36 51.62 36 54 C30.913 55.09 26.583 55.368 21.875 52.875 C20.032 51.773 20.032 51.773 18.062 52.5 C15.207 53.192 13.657 52.129 11 51 C9.68 51 8.36 51 7 51 C2.125 51 -2.364 50.545 -7 49 C-7 48.34 -7 47.68 -7 47 C-8.98 47.66 -10.96 48.32 -13 49 C-13.66 47.68 -14.32 46.36 -15 45 C-15.66 45 -16.32 45 -17 45 C-17 44.34 -17 43.68 -17 43 C-19.386 43.576 -21.667 44.222 -24 45 C-24 44.01 -24 43.02 -24 42 C-27.465 41.505 -27.465 41.505 -31 41 C-31.33 39.68 -31.66 38.36 -32 37 C-32.99 37 -33.98 37 -35 37 C-36.925 35.178 -38.375 33.108 -40 31 C-41.98 31.495 -41.98 31.495 -44 32 C-37.009 20.45 -15.625 -4.945 0 0 Z M1 4 C3 5 3 5 3 5 Z M-23 45 C-20 46 -20 46 -20 46 Z M17 53 C20 54 20 54 20 54 Z " fill="#1586C1" transform="translate(294,386)"/>
<path d="M0 0 C0.33 0.66 0.66 1.32 1 2 C0.062 4.125 0.062 4.125 -1 6 C-1.043 4.334 -1.041 2.666 -1 1 C-0.67 0.67 -0.34 0.34 0 0 Z M-2 6 C-1.67 6 -1.34 6 -1 6 C0.986 16.491 0.986 16.491 1.5 21.562 C1.658 25.057 1.658 25.057 4 27 C6.571 27.648 6.571 27.648 9 28 C9.165 28.949 9.33 29.897 9.5 30.875 C10.625 34.05 10.625 34.05 12.809 34.879 C16.424 35.827 18.379 36.207 22 35 C22 35.66 22 36.32 22 37 C27.977 37.025 33.955 37.043 39.932 37.055 C41.963 37.06 43.994 37.067 46.025 37.075 C48.954 37.088 51.883 37.093 54.812 37.098 C55.712 37.103 56.611 37.108 57.538 37.113 C62.792 37.114 67.795 36.711 73 36 C75.667 36 78.333 36 81 36 C83.736 35.819 86.289 35.476 89 35 C89.33 34.34 89.66 33.68 90 33 C90.557 33.107 91.114 33.214 91.688 33.324 C97.763 34.279 101.411 33.541 107 31 C106.67 31.577 106.34 32.155 106 32.75 C104.729 35.199 104.729 35.199 105 39 C69.69 39 34.38 39 -2 39 C-2 28.11 -2 17.22 -2 6 Z " fill="#0E5FA1" transform="translate(517,441)"/>
<path d="M0 0 C2.5 0.125 2.5 0.125 3.5 1.125 C3.703 2.91 3.703 2.91 3.75 5.188 C3.776 5.921 3.802 6.654 3.828 7.41 C3.462 10.441 2.475 13.003 1.355 15.83 C-0.256 20.152 -1.399 24.619 -2.625 29.062 C-3.145 30.947 -3.669 32.832 -4.195 34.715 C-4.422 35.538 -4.649 36.362 -4.883 37.211 C-5.5 39.125 -5.5 39.125 -6.5 40.125 C-8.938 40.312 -8.938 40.312 -11.5 40.125 C-12.16 39.465 -12.82 38.805 -13.5 38.125 C-13.013 33.889 -11.621 29.773 -10.469 25.672 C-10.273 24.971 -10.077 24.27 -9.875 23.548 C-9.462 22.075 -9.049 20.603 -8.634 19.131 C-7.998 16.87 -7.368 14.607 -6.738 12.344 C-6.336 10.911 -5.934 9.479 -5.531 8.047 C-5.343 7.368 -5.154 6.689 -4.96 5.989 C-3.31 0.166 -3.31 0.166 0 0 Z " fill="#1875B2" transform="translate(607.5,342.875)"/>
<path d="M0 0 C0.688 1.688 0.688 1.688 1 4 C-0.246 6.285 -0.246 6.285 -2 9 C-2.593 9.923 -3.186 10.846 -3.797 11.797 C-7.493 17.386 -11.279 22.822 -15.457 28.062 C-17.011 30.014 -18.512 31.998 -20 34 C-21.65 33.67 -23.3 33.34 -25 33 C-26.284 28.605 -26.284 28.605 -25.031 25.939 C-24.526 25.274 -24.021 24.61 -23.5 23.926 C-22.945 23.18 -22.391 22.434 -21.82 21.666 C-21.219 20.889 -20.619 20.113 -20 19.312 C-18.795 17.706 -17.591 16.099 -16.387 14.492 C-15.802 13.721 -15.217 12.95 -14.615 12.155 C-12.05 8.732 -9.663 5.197 -7.27 1.652 C-4.939 -1.381 -3.414 -1.024 0 0 Z " fill="#1774B1" transform="translate(645,361)"/>
<path d="M0 0 C1.207 0.031 1.207 0.031 2.438 0.062 C6.291 7.65 10.023 15.267 13.438 23.062 C13.845 23.976 14.252 24.89 14.672 25.832 C15.048 26.712 15.425 27.593 15.812 28.5 C16.15 29.282 16.488 30.065 16.836 30.871 C17.516 33.349 17.278 34.666 16.438 37.062 C14.788 37.062 13.138 37.062 11.438 37.062 C9.484 33.156 7.531 29.25 5.578 25.344 C5.225 24.638 4.872 23.933 4.509 23.206 C3.791 21.77 3.075 20.333 2.361 18.896 C0.986 16.133 -0.389 13.382 -1.863 10.672 C-2.197 10.058 -2.531 9.445 -2.875 8.812 C-3.222 8.189 -3.569 7.565 -3.926 6.922 C-4.725 4.587 -4.399 3.351 -3.562 1.062 C-2.562 0.062 -2.562 0.062 0 0 Z " fill="#1372B0" transform="translate(531.5625,349.9375)"/>
<path d="M0 0 C0.66 0 1.32 0 2 0 C2.579 5.834 2.916 10.562 -0.688 15.438 C-3.988 19.237 -7.158 22.386 -12 24 C-18.026 24.402 -21.449 23.577 -27 21 C-29.651 20.228 -32.306 19.614 -35 19 C-35 18.67 -35 18.34 -35 18 C-34.12 18.081 -33.239 18.162 -32.332 18.246 C-25.857 18.94 -25.857 18.94 -20.234 16.477 C-19.463 15.216 -18.727 13.933 -18.031 12.629 C-17 11 -17 11 -14.062 10 C-10.919 10 -8.071 10.342 -5 11 C-4.723 10.29 -4.446 9.579 -4.16 8.848 C-3.798 7.929 -3.436 7.009 -3.062 6.062 C-2.703 5.146 -2.343 4.229 -1.973 3.285 C-1 1 -1 1 0 0 Z " fill="#1B8AC3" transform="translate(679,556)"/>
<path d="M0 0 C3.5 0.125 3.5 0.125 4.5 1.125 C4.541 3.125 4.543 5.125 4.5 7.125 C-1.321 9.6 -7.356 10.881 -13.5 12.312 C-14.676 12.598 -15.851 12.884 -17.062 13.178 C-18.764 13.575 -18.764 13.575 -20.5 13.98 C-21.531 14.224 -22.562 14.468 -23.625 14.719 C-26.573 15.135 -28.644 14.893 -31.5 14.125 C-31.812 11.812 -31.812 11.812 -31.5 9.125 C-26.921 5.333 -20.913 4.679 -15.25 3.5 C-13.244 3.073 -11.239 2.644 -9.234 2.211 C-8.35 2.026 -7.465 1.841 -6.554 1.65 C-0.114 0.004 -0.114 0.004 0 0 Z " fill="#1572B0" transform="translate(680.5,424.875)"/>
<path d="M0 0 C2 1 2 1 2 1 Z M-9 1 C-6.36 1.66 -3.72 2.32 -1 3 C-0.67 2.34 -0.34 1.68 0 1 C5.554 0.748 5.554 0.748 7.875 2.062 C11.314 3.58 14.343 2.61 18 2 C18.562 3.938 18.562 3.938 19 6 C18.67 6.33 18.34 6.66 18 7 C19.32 7.66 20.64 8.32 22 9 C20.229 9.398 20.229 9.398 18.422 9.805 C16.865 10.161 15.307 10.518 13.75 10.875 C12.973 11.049 12.195 11.223 11.395 11.402 C10.64 11.576 9.886 11.75 9.109 11.93 C8.072 12.165 8.072 12.165 7.015 12.406 C4.811 13.056 2.961 13.798 1 15 C0.188 17.555 0.188 17.555 0 20 C-0.66 19.34 -1.32 18.68 -2 18 C-3.65 18.99 -5.3 19.98 -7 21 C-6.773 20.443 -6.546 19.886 -6.312 19.312 C-5.876 16.084 -7.309 14.706 -9 12 C-9 10.68 -9 9.36 -9 8 C-6.03 8.495 -6.03 8.495 -3 9 C-3.99 8.67 -4.98 8.34 -6 8 C-6.33 7.67 -6.66 7.34 -7 7 C-7.99 7 -8.98 7 -10 7 C-9.67 5.02 -9.34 3.04 -9 1 Z M6 4 C5.67 4.99 5.34 5.98 5 7 C6.65 6.67 8.3 6.34 10 6 C10 5.34 10 4.68 10 4 C8.68 4 7.36 4 6 4 Z M1 21 C5 22 5 22 5 22 Z " fill="#E1E4E5" transform="translate(649,419)"/>
<path d="M0 0 C1 1 1 1 1.371 3.316 C1 6 1 6 -1.09 8.027 C-2.03 8.658 -2.969 9.288 -3.938 9.938 C-4.939 10.621 -5.941 11.304 -6.973 12.008 C-7.972 12.665 -8.971 13.323 -10 14 C-10.844 14.575 -11.689 15.15 -12.559 15.742 C-14.053 16.756 -15.557 17.757 -17.07 18.742 C-18.653 19.774 -20.206 20.85 -21.75 21.938 C-24.576 23.272 -26.07 22.921 -29 22 C-29.33 20.35 -29.66 18.7 -30 17 C-26.475 13.905 -23.144 11.426 -19.004 9.176 C-15.57 7.161 -12.373 4.803 -9.137 2.488 C-5.855 0.203 -3.99 -0.205 0 0 Z " fill="#1674B1" transform="translate(668,391)"/>
<path d="M0 0 C4.467 0.067 8.921 0.479 13.375 0.812 C14.633 0.896 15.891 0.979 17.188 1.064 C18.391 1.153 19.595 1.241 20.836 1.332 C22.5 1.452 22.5 1.452 24.197 1.573 C27 2 27 2 30 4 C30.188 7.125 30.188 7.125 30 10 C25.853 10.838 22.39 11.016 18.199 10.477 C17.14 10.342 16.081 10.208 14.99 10.07 C13.9 9.923 12.81 9.776 11.688 9.625 C10.578 9.486 9.469 9.347 8.326 9.203 C0.14 8.14 0.14 8.14 -1 7 C-1.125 4 -1.125 4 -1 1 C-0.67 0.67 -0.34 0.34 0 0 Z " fill="#176BA9" transform="translate(652,461)"/>
<path d="M0 0 C1.409 2.818 1.112 5.173 1.098 8.32 C1.094 9.577 1.091 10.834 1.088 12.129 C1.08 13.448 1.071 14.766 1.062 16.125 C1.057 17.465 1.053 18.805 1.049 20.145 C1.037 23.43 1.021 26.715 1 30 C-1.375 30.625 -1.375 30.625 -4 31 C-6.789 28.211 -6.953 26.139 -7.114 22.251 C-7.108 21.225 -7.103 20.198 -7.098 19.141 C-7.094 18.026 -7.091 16.911 -7.088 15.762 C-7.08 14.603 -7.071 13.444 -7.062 12.25 C-7.058 11.076 -7.053 9.901 -7.049 8.691 C-7.037 5.794 -7.021 2.897 -7 0 C-4.302 -1.349 -2.848 -0.803 0 0 Z " fill="#1976B2" transform="translate(573,350)"/>
<path d="M0 0 C0.33 0 0.66 0 1 0 C1.33 3.63 1.66 7.26 2 11 C2.66 11 3.32 11 4 11 C4 12.65 4 14.3 4 16 C5.64 16.217 5.64 16.217 7.312 16.438 C11 17 11 17 14 18 C14.33 19.65 14.66 21.3 15 23 C13.68 23.33 12.36 23.66 11 24 C16.042 26.015 20.408 26.335 25.75 26.312 C26.517 26.329 27.284 26.345 28.074 26.361 C30.548 26.4 30.548 26.4 34 26 C34.66 25.01 35.32 24.02 36 23 C36.99 23.33 37.98 23.66 39 24 C39.66 25.65 40.32 27.3 41 29 C27.14 28.67 13.28 28.34 -1 28 C-0.67 18.76 -0.34 9.52 0 0 Z M17 22 C19 23 19 23 19 23 Z M15 23 C15.66 23.33 16.32 23.66 17 24 C15.35 24.33 13.7 24.66 12 25 C12.99 24.34 13.98 23.68 15 23 Z " fill="#1486C1" transform="translate(383,458)"/>
<path d="M0 0 C3.625 1.5 3.625 1.5 6 3 C6 3.66 6 4.32 6 5 C3.36 5.33 0.72 5.66 -2 6 C-2 5.34 -2 4.68 -2 4 C-2.66 4 -3.32 4 -4 4 C-4 4.99 -4 5.98 -4 7 C-5.98 7.66 -7.96 8.32 -10 9 C-10 8.34 -10 7.68 -10 7 C-10.619 7.33 -11.237 7.66 -11.875 8 C-16.262 9.404 -20.432 9.16 -25 9 C-24.67 8.01 -24.34 7.02 -24 6 C-24.99 5.67 -25.98 5.34 -27 5 C-26.67 4.01 -26.34 3.02 -26 2 C-25.34 2.33 -24.68 2.66 -24 3 C-18.328 3.417 -18.328 3.417 -13.125 1.5 C-8.73 -0.61 -4.798 -0.606 0 0 Z " fill="#1E8CC4" transform="translate(667,542)"/>
<path d="M0 0 C4.65 0.361 7.216 3.679 10.285 6.863 C12.454 9.566 13.165 11.53 13 15 C12.34 15.66 11.68 16.32 11 17 C7.054 16.764 4.962 14.426 2.25 11.75 C1.451 10.982 0.652 10.213 -0.172 9.422 C-2 7 -2 7 -2.391 4.328 C-2 2 -2 2 0 0 Z " fill="#2780B9" transform="translate(514,387)"/>
<path d="M0 0 C0.99 0 1.98 0 3 0 C3.611 4.889 3.177 7.264 0.188 11.25 C-5.014 17.671 -5.014 17.671 -9 19 C-10.852 19.094 -12.708 19.13 -14.562 19.125 C-15.533 19.128 -16.504 19.13 -17.504 19.133 C-20 19 -20 19 -22 18 C-22 17.34 -22 16.68 -22 16 C-12.869 12.968 -12.869 12.968 -8.562 13.125 C-7.294 13.063 -7.294 13.063 -6 13 C-3.393 9.853 -2.726 6.94 -2 3 C-1.34 2.01 -0.68 1.02 0 0 Z " fill="#1D8BC4" transform="translate(457,510)"/>
<path d="M0 0 C1 2 1 2 1 6 C3.475 6.99 3.475 6.99 6 8 C5.01 9.485 5.01 9.485 4 11 C3.417 12.548 2.877 14.112 2.375 15.688 C2.115 16.496 1.854 17.304 1.586 18.137 C1.296 19.059 1.296 19.059 1 20 C-0.938 19.688 -0.938 19.688 -3 19 C-4.054 15.838 -4.234 13.385 -4.312 10.062 C-4.369 8.502 -4.369 8.502 -4.426 6.91 C-3.905 3.352 -2.733 2.237 0 0 Z " fill="#1B8AC3" transform="translate(428,500)"/>
<path d="M0 0 C2.72 1.019 3.821 1.691 5.301 4.242 C5.635 5.111 5.969 5.98 6.312 6.875 C6.659 7.739 7.006 8.602 7.363 9.492 C8.036 12.142 7.915 13.462 7 16 C5.35 16 3.7 16 2 16 C1.153 14.612 0.323 13.214 -0.5 11.812 C-0.964 11.035 -1.428 10.258 -1.906 9.457 C-3.107 6.759 -3.207 4.919 -3 2 C-2.01 2.33 -1.02 2.66 0 3 C0 2.01 0 1.02 0 0 Z " fill="#1064A5" transform="translate(541,371)"/>
<path d="M0 0 C1.014 2.028 2.011 4.027 2.875 6.125 C4.252 8.42 5.552 9.021 8 10 C6.35 10 4.7 10 3 10 C3.33 10.33 3.66 10.66 4 11 C4 11.99 4 12.98 4 14 C2.35 14.33 0.7 14.66 -1 15 C-4 10.25 -4 10.25 -4 8 C-3.34 7.67 -2.68 7.34 -2 7 C-1.269 4.686 -0.599 2.352 0 0 Z M10 6 C10.577 6.165 11.155 6.33 11.75 6.5 C14.267 7.145 14.267 7.145 18 7 C18 7.66 18 8.32 18 9 C17.34 9 16.68 9 16 9 C15.67 10.32 15.34 11.64 15 13 C14.01 13 13.02 13 12 13 C12 12.34 12 11.68 12 11 C10.68 10.34 9.36 9.68 8 9 C8.66 8.01 9.32 7.02 10 6 Z M5 13 C7 14 7 14 7 14 Z " fill="#DBDFE2" transform="translate(636,405)"/>
<path d="M0 0 C0.66 0 1.32 0 2 0 C2 10.23 2 20.46 2 31 C1.67 31 1.34 31 1 31 C1 29.02 1 27.04 1 25 C0.01 24.67 -0.98 24.34 -2 24 C-2.697 22.346 -3.361 20.677 -4 19 C-4.981 17.981 -5.977 16.976 -7 16 C-7 15.34 -7 14.68 -7 14 C-6.34 14 -5.68 14 -5 14 C-5 13.34 -5 12.68 -5 12 C-3.68 11.34 -2.36 10.68 -1 10 C-0.67 10.33 -0.34 10.66 0 11 C0 7.37 0 3.74 0 0 Z " fill="#1FA9DB" transform="translate(502,379)"/>
<path d="M0 0 C0.66 0.66 1.32 1.32 2 2 C2.99 1.67 3.98 1.34 5 1 C4.886 2.772 4.758 4.542 4.625 6.312 C4.555 7.299 4.486 8.285 4.414 9.301 C4 12 4 12 2 15 C-0.5 15.312 -0.5 15.312 -3 15 C-3.66 14.34 -4.32 13.68 -5 13 C-4.649 8.909 -2.956 2.956 0 0 Z M0 3 C0.33 3.99 0.66 4.98 1 6 C1.33 5.01 1.66 4.02 2 3 C1.34 3 0.68 3 0 3 Z " fill="#0E60A1" transform="translate(599,368)"/>
<path d="M0 0 C0.619 0.351 1.238 0.701 1.875 1.062 C2.576 1.372 3.278 1.681 4 2 C4.66 1.67 5.32 1.34 6 1 C6.99 1.33 7.98 1.66 9 2 C8.67 2.66 8.34 3.32 8 4 C8.99 5.485 8.99 5.485 10 7 C9.954 8.197 9.954 8.197 9.906 9.418 C10.03 12.819 11.19 13.879 13.5 16.312 C14.15 17.01 14.799 17.707 15.469 18.426 C15.974 18.945 16.479 19.465 17 20 C16.67 20.66 16.34 21.32 16 22 C9.617 17.253 2.043 10.583 0.238 2.652 C0.16 1.777 0.081 0.902 0 0 Z " fill="#1D62A0" transform="translate(245,602)"/>
<path d="M0 0 C20.081 -0.279 20.081 -0.279 25 3 C24.67 3.66 24.34 4.32 24 5 C23.443 4.67 22.886 4.34 22.312 4 C19.697 2.869 17.819 2.843 15 3 C15 3.66 15 4.32 15 5 C12.708 5.027 10.417 5.046 8.125 5.062 C6.849 5.074 5.573 5.086 4.258 5.098 C1 5 1 5 -1 4 C-0.67 2.68 -0.34 1.36 0 0 Z " fill="#1875B2" transform="translate(657,462)"/>
<path d="M0 0 C0.66 0 1.32 0 2 0 C2 3.3 2 6.6 2 10 C-2.437 10.225 -6.874 10.427 -11.312 10.625 C-12.575 10.689 -13.838 10.754 -15.139 10.82 C-16.347 10.872 -17.556 10.923 -18.801 10.977 C-19.916 11.029 -21.032 11.081 -22.181 11.135 C-25 11 -25 11 -28 9 C-27.01 7.68 -26.02 6.36 -25 5 C-23.35 5.33 -21.7 5.66 -20 6 C-20 6.66 -20 7.32 -20 8 C-17.771 8.054 -15.542 8.093 -13.312 8.125 C-12.071 8.148 -10.83 8.171 -9.551 8.195 C-6.175 8.01 -4.023 7.425 -1 6 C-0.67 6 -0.34 6 0 6 C0 4.02 0 2.04 0 0 Z " fill="#1797CE" transform="translate(501,356)"/>
<path d="M0 0 C1.65 0.33 3.3 0.66 5 1 C4.67 5.62 4.34 10.24 4 15 C3.34 13.68 2.68 12.36 2 11 C1.67 13.31 1.34 15.62 1 18 C-1 16 -1 16 -1.23 12.559 C-1.226 11.185 -1.212 9.811 -1.188 8.438 C-1.187 7.739 -1.186 7.041 -1.186 6.322 C-1.14 1.14 -1.14 1.14 0 0 Z " fill="#0F63A4" transform="translate(568,349)"/>
<path d="M0 0 C0.99 0.33 1.98 0.66 3 1 C3 1.66 3 2.32 3 3 C3.577 3.289 4.155 3.577 4.75 3.875 C7.875 5.438 7.875 5.438 11 7 C11 7.66 11 8.32 11 9 C9.742 9.021 8.484 9.041 7.188 9.062 C6.48 9.074 5.772 9.086 5.043 9.098 C3 9 3 9 0 8 C-0.8 4.713 -1.097 3.29 0 0 Z M-3 2 C-1 3 -1 3 -1 3 Z M11 9 C13.64 9.33 16.28 9.66 19 10 C19 10.33 19 10.66 19 11 C16.36 10.67 13.72 10.34 11 10 C11 9.67 11 9.34 11 9 Z " fill="#0D5093" transform="translate(469,719)"/>
<path d="M0 0 C1.485 0.99 1.485 0.99 3 2 C2.67 2.66 2.34 3.32 2 4 C1.01 3.01 0.02 2.02 -1 1 C-0.67 0.67 -0.34 0.34 0 0 Z M3 4 C8.75 7.75 8.75 7.75 11 10 C10.625 12.125 10.625 12.125 10 14 C8.188 14.688 8.188 14.688 6 15 C4.25 14.062 4.25 14.062 3 12 C2.748 9.281 2.865 6.742 3 4 Z " fill="#0E61A2" transform="translate(515,388)"/>
<path d="M0 0 C2.207 0.966 3.429 2.069 5 3.875 C3.68 5.525 2.36 7.175 1 8.875 C-0.65 8.545 -2.3 8.215 -4 7.875 C-4.688 5.562 -4.688 5.562 -5 2.875 C-3.509 0.521 -2.823 -0.176 0 0 Z " fill="#1468A8" transform="translate(643,405.125)"/>
<path d="M0 0 C0.33 0 0.66 0 1 0 C1.026 1.109 1.052 2.217 1.078 3.359 C1.134 4.823 1.192 6.286 1.25 7.75 C1.264 8.48 1.278 9.209 1.293 9.961 C1.457 13.578 1.616 15.563 4.047 18.328 C4.691 18.88 5.336 19.432 6 20 C6 20.99 6 21.98 6 23 C5.34 23.66 4.68 24.32 4 25 C2.68 25 1.36 25 0 25 C0 16.75 0 8.5 0 0 Z " fill="#1788C2" transform="translate(516,511)"/>
<path d="M0 0 C5.363 -0.264 5.363 -0.264 8 0 C9.562 1.438 9.562 1.438 11 3 C14.61 3.73 14.61 3.73 18 4 C18 4.33 18 4.66 18 5 C11.73 5 5.46 5 -1 5 C-1.33 4.01 -1.66 3.02 -2 2 C-1.34 2 -0.68 2 0 2 C0 1.34 0 0.68 0 0 Z " fill="#E3EAED" transform="translate(658,457)"/>
<path d="M0 0 C4.95 0 9.9 0 15 0 C15 1.32 15 2.64 15 4 C11.777 5.074 9.374 5.07 6 5 C5.01 5 4.02 5 3 5 C1.312 3.625 1.312 3.625 0 2 C0 1.34 0 0.68 0 0 Z " fill="#0E5FA1" transform="translate(478,637)"/>
<path d="M0 0 C0.33 0.66 0.66 1.32 1 2 C1.598 2.289 2.196 2.577 2.812 2.875 C5.392 4.202 6.957 5.957 9 8 C10.32 8.66 11.64 9.32 13 10 C6.565 10.495 6.565 10.495 0 11 C0 7.37 0 3.74 0 0 Z " fill="#116FAE" transform="translate(516,612)"/>
<path d="M0 0 C1.207 0.031 1.207 0.031 2.438 0.062 C3.792 2.771 3.503 5.072 3.438 8.062 C2.447 7.733 1.457 7.402 0.438 7.062 C0.768 8.053 1.097 9.043 1.438 10.062 C-1.724 8.693 -2.555 8.073 -4.562 5.062 C-4.034 1.466 -3.822 0.093 0 0 Z M-0.562 5.062 C0.438 7.062 0.438 7.062 0.438 7.062 Z " fill="#1469A8" transform="translate(531.5625,349.9375)"/>
<path d="M0 0 C0.99 0.33 1.98 0.66 3 1 C3 1.66 3 2.32 3 3 C2.34 3.66 1.68 4.32 1 5 C1.66 5 2.32 5 3 5 C3 5.99 3 6.98 3 8 C3.66 8.66 4.32 9.32 5 10 C4.34 10 3.68 10 3 10 C3 10.66 3 11.32 3 12 C4.65 11.34 6.3 10.68 8 10 C6 13 6 13 3.5 13.625 C2.675 13.749 1.85 13.873 1 14 C0.01 14.495 0.01 14.495 -1 15 C-1.027 12.688 -1.046 10.375 -1.062 8.062 C-1.074 6.775 -1.086 5.487 -1.098 4.16 C-1 1 -1 1 0 0 Z M7 12 C7.66 12.66 8.32 13.32 9 14 C8.01 13.67 7.02 13.34 6 13 C6.33 12.67 6.66 12.34 7 12 Z " fill="#1EA9DC" transform="translate(465,386)"/>
<path d="M0 0 C0.33 0.66 0.66 1.32 1 2 C3.025 2.652 3.025 2.652 5 3 C4.312 5.438 4.312 5.438 3 8 C0.5 8.938 0.5 8.938 -2 9 C-2.66 8.34 -3.32 7.68 -4 7 C-4 5.68 -4 4.36 -4 3 C-2 1.25 -2 1.25 0 0 Z " fill="#1769A8" transform="translate(623,386)"/>
<path d="M0 0 C-1.795 2.42 -3.244 3.808 -6.199 4.559 C-8.519 4.861 -10.663 5.135 -13 5 C-13.66 4.34 -14.32 3.68 -15 3 C-9.897 1.095 -5.537 -0.426 0 0 Z M-17 4 C-16.34 4.33 -15.68 4.66 -15 5 C-16.65 5.33 -18.3 5.66 -20 6 C-19.01 5.34 -18.02 4.68 -17 4 Z " fill="#0E61A3" transform="translate(671,433)"/>
<path d="M0 0 C-1.533 3.45 -3.641 6.069 -6 9 C-6.557 9.928 -7.114 10.856 -7.688 11.812 C-8.121 12.534 -8.554 13.256 -9 14 C-9.33 14 -9.66 14 -10 14 C-9.631 7.846 -8.171 5.273 -4 1 C-2 0 -2 0 0 0 Z M-11 14 C-10 18 -10 18 -10 18 Z " fill="#0C488B" transform="translate(476,677)"/>
<path d="M0 0 C0.33 0 0.66 0 1 0 C1 3.3 1 6.6 1 10 C-2.3 9.34 -5.6 8.68 -9 8 C-5.69 4.69 -4.468 4.496 0 4 C0 2.68 0 1.36 0 0 Z " fill="#0E60A1" transform="translate(369,525)"/>
<path d="M0 0 C2.64 0.33 5.28 0.66 8 1 C8 1.66 8 2.32 8 3 C8.66 3 9.32 3 10 3 C10 3.66 10 4.32 10 5 C10.66 5 11.32 5 12 5 C12 5.66 12 6.32 12 7 C8.206 7.353 6.441 7.284 3.188 5.188 C1 3 1 3 0 0 Z " fill="#1989C3" transform="translate(344,443)"/>
<path d="M0 0 C7.59 0 15.18 0 23 0 C22.01 1.98 21.02 3.96 20 6 C19.67 4.68 19.34 3.36 19 2 C18.131 2.012 17.262 2.023 16.367 2.035 C15.215 2.044 14.062 2.053 12.875 2.062 C11.738 2.074 10.601 2.086 9.43 2.098 C6.187 2.005 3.181 1.614 0 1 C0 0.67 0 0.34 0 0 Z " fill="#0C4386" transform="translate(395,635)"/>
<path d="M0 0 C1.207 0.031 1.207 0.031 2.438 0.062 C2.107 1.712 1.778 3.363 1.438 5.062 C2.428 5.392 3.418 5.723 4.438 6.062 C4.438 6.392 4.438 6.723 4.438 7.062 C1.798 7.062 -0.842 7.062 -3.562 7.062 C-3.605 5.063 -3.603 3.062 -3.562 1.062 C-2.562 0.062 -2.562 0.062 0 0 Z " fill="#0E63A4" transform="translate(654.5625,460.9375)"/>
<path d="M0 0 C2.64 0 5.28 0 8 0 C7.01 0.33 6.02 0.66 5 1 C4.918 1.722 4.835 2.444 4.75 3.188 C3.852 6.553 2.289 8.416 0 11 C0 7.37 0 3.74 0 0 Z " fill="#1486C1" transform="translate(516,498)"/>
<path d="M0 0 C1.392 4.176 -0.046 5.79 -1.938 9.688 C-2.503 10.867 -3.069 12.046 -3.652 13.262 C-4.097 14.165 -4.542 15.069 -5 16 C-5.33 16 -5.66 16 -6 16 C-6.778 9.928 -4.17 5.937 -1 1 C-0.67 0.67 -0.34 0.34 0 0 Z " fill="#1064A5" transform="translate(523,424)"/>
<path d="M0 0 C0 2.97 0 5.94 0 9 C-2.31 9 -4.62 9 -7 9 C-5.994 5.983 -3.908 0 0 0 Z " fill="#0E5FA1" transform="translate(638,471)"/>
<path d="M0 0 C1.254 0.195 2.509 0.389 3.801 0.59 C4.753 0.746 5.706 0.902 6.688 1.062 C6.688 1.393 6.688 1.722 6.688 2.062 C-0.903 2.062 -8.492 2.062 -16.312 2.062 C-10.297 -0.945 -6.632 -1.054 0 0 Z " fill="#116FAE" transform="translate(623.3125,619.9375)"/>
<path d="M0 0 C2.475 0.99 2.475 0.99 5 2 C4.67 2.99 4.34 3.98 4 5 C3.01 5.33 2.02 5.66 1 6 C-0.685 7.997 -0.685 7.997 -2 10 C-3.125 7.688 -3.125 7.688 -4 5 C-3.34 4.01 -2.68 3.02 -2 2 C-1.67 2.33 -1.34 2.66 -1 3 C-0.67 2.01 -0.34 1.02 0 0 Z " fill="#1364A4" transform="translate(469,653)"/>
<path d="M0 0 C4.95 0 9.9 0 15 0 C15 0.33 15 0.66 15 1 C9.555 1.99 9.555 1.99 4 3 C4 3.99 4 4.98 4 6 C3.01 5.67 2.02 5.34 1 5 C0.67 3.35 0.34 1.7 0 0 Z " fill="#0C4588" transform="translate(465,635)"/>
<path d="M0 0 C0.66 0.33 1.32 0.66 2 1 C2 1.66 2 2.32 2 3 C-2.62 3 -7.24 3 -12 3 C-7.59 0.06 -5.329 -0.19 0 0 Z " fill="#116FAE" transform="translate(555,619)"/>
<path d="M0 0 C0 5.28 0 10.56 0 16 C-0.33 16 -0.66 16 -1 16 C-1.33 12.04 -1.66 8.08 -2 4 C-3.98 4 -5.96 4 -8 4 C-5.574 1.343 -3.761 0 0 0 Z " fill="#0D5093" transform="translate(370,586)"/>
<path d="M0 0 C3.875 2.75 3.875 2.75 5 5 C5.66 3.35 6.32 1.7 7 0 C7.625 1.812 7.625 1.812 8 4 C7.01 5.485 7.01 5.485 6 7 C3.5 7.312 3.5 7.312 1 7 C0.34 6.34 -0.32 5.68 -1 5 C-0.625 2.375 -0.625 2.375 0 0 Z " fill="#267FB7" transform="translate(595,376)"/>
<path d="M0 0 C0.66 0 1.32 0 2 0 C2 3.3 2 6.6 2 10 C-0.64 10 -3.28 10 -6 10 C-5.01 8.68 -4.02 7.36 -3 6 C-2.34 6.33 -1.68 6.66 -1 7 C0.356 5.875 0.356 5.875 0.062 2.938 C0.042 1.968 0.021 0.999 0 0 Z " fill="#1796CE" transform="translate(501,356)"/>
<path d="M0 0 C0.33 0 0.66 0 1 0 C1 1.65 1 3.3 1 5 C0.67 5 0.34 5 0 5 C0 3.35 0 1.7 0 0 Z M1 5 C1.33 5 1.66 5 2 5 C2 9.29 2 13.58 2 18 C1.67 18 1.34 18 1 18 C0.691 17.051 0.381 16.103 0.062 15.125 C-0.874 12.139 -0.874 12.139 -2 10 C-1.34 10 -0.68 10 0 10 C0.33 8.35 0.66 6.7 1 5 Z " fill="#0E5FA1" transform="translate(638,442)"/>
<path d="M0 0 C0 0.66 0 1.32 0 2 C-0.66 2 -1.32 2 -2 2 C-2.33 3.32 -2.66 4.64 -3 6 C-3.99 6 -4.98 6 -6 6 C-6 5.34 -6 4.68 -6 4 C-6.66 3.67 -7.32 3.34 -8 3 C-8 2.34 -8 1.68 -8 1 C-5.108 0.174 -3.113 0 0 0 Z " fill="#E4E4E4" transform="translate(654,412)"/>
<path d="M0 0 C0.66 0.33 1.32 0.66 2 1 C2 1.66 2 2.32 2 3 C2.66 3.33 3.32 3.66 4 4 C3.67 5.32 3.34 6.64 3 8 C1.125 7.75 1.125 7.75 -1 7 C-2.25 4.938 -2.25 4.938 -3 3 C-2.01 2.01 -1.02 1.02 0 0 Z " fill="#1487C2" transform="translate(546,534)"/>
<path d="M0 0 C3.869 0.573 6.152 2.39 9 5 C9 5.66 9 6.32 9 7 C4.753 6.528 2.765 4.072 0 1 C0 0.67 0 0.34 0 0 Z M9 7 C11 8 11 8 11 8 Z " fill="#0C4B8D" transform="translate(418,665)"/>
<path d="M0 0 C0.99 0.33 1.98 0.66 3 1 C3 1.99 3 2.98 3 4 C3.66 4 4.32 4 5 4 C5.66 5.32 6.32 6.64 7 8 C6.01 8.66 5.02 9.32 4 10 C3.328 8.711 2.663 7.419 2 6.125 C1.629 5.406 1.257 4.686 0.875 3.945 C0 2 0 2 0 0 Z " fill="#327DB3" transform="translate(244,501)"/>
<path d="M0 0 C0 3 0 3 -2 5.188 C-2.66 5.786 -3.32 6.384 -4 7 C-2.926 4.085 -2.222 2.222 0 0 Z M-5 7 C-4.67 7.99 -4.34 8.98 -4 10 C-5.32 10.99 -6.64 11.98 -8 13 C-6.125 8.125 -6.125 8.125 -5 7 Z " fill="#1796CE" transform="translate(317,312)"/>
<path d="M0 0 C0.99 0 1.98 0 3 0 C1.523 5.662 1.523 5.662 -1.125 7.375 C-2.053 7.684 -2.053 7.684 -3 8 C-1.125 2.25 -1.125 2.25 0 0 Z " fill="#2A7AB3" transform="translate(244,517)"/>
<path d="M0 0 C4.078 2.865 6.027 5.43 8 10 C6.25 9.938 6.25 9.938 4 9 C1.992 6.3 0 3.449 0 0 Z " fill="#115697" transform="translate(332,573)"/>
<path d="M0 0 C0.66 0.66 1.32 1.32 2 2 C1.758 5.039 1.758 5.039 1.125 8.625 C0.921 9.814 0.718 11.002 0.508 12.227 C0.34 13.142 0.173 14.057 0 15 C-0.33 15 -0.66 15 -1 15 C-1.027 12.688 -1.046 10.375 -1.062 8.062 C-1.074 6.775 -1.086 5.487 -1.098 4.16 C-1 1 -1 1 0 0 Z " fill="#3797C9" transform="translate(555,551)"/>
<path d="M0 0 C3.775 1.091 6.47 1.908 9 5 C6.36 4.67 3.72 4.34 1 4 C0.67 2.68 0.34 1.36 0 0 Z " fill="#158AC4" transform="translate(471,454)"/>
<path d="M0 0 C0 2.97 0 5.94 0 9 C-0.66 8.67 -1.32 8.34 -2 8 C-2.731 5.686 -3.401 3.352 -4 1 C-2 0 -2 0 0 0 Z " fill="#0E5FA1" transform="translate(502,648)"/>
<path d="M0 0 C0 0.66 0 1.32 0 2 C-1.98 2.33 -3.96 2.66 -6 3 C-6.33 2.01 -6.66 1.02 -7 0 C-4.333 -1.333 -2.833 -0.671 0 0 Z " fill="#1695CD" transform="translate(605,568)"/>
<path d="M0 0 C1.98 0.99 3.96 1.98 6 3 C5.67 4.32 5.34 5.64 5 7 C3.291 5.377 1.626 3.707 0 2 C0 1.34 0 0.68 0 0 Z " fill="#0D5093" transform="translate(311,724)"/>
<path d="M0 0 C0.66 0.33 1.32 0.66 2 1 C2 1.66 2 2.32 2 3 C0.02 3.66 -1.96 4.32 -4 5 C-2.68 3.35 -1.36 1.7 0 0 Z M-7 6 C-6.34 6 -5.68 6 -5 6 C-5 6.66 -5 7.32 -5 8 C-5.66 8 -6.32 8 -7 8 C-7 7.34 -7 6.68 -7 6 Z " fill="#D8E4EA" transform="translate(652,429)"/>
<path d="M0 0 C-0.33 0.66 -0.66 1.32 -1 2 C-2.98 2 -4.96 2 -7 2 C-7.33 1.34 -7.66 0.68 -8 0 C-4.71 -1.097 -3.287 -0.8 0 0 Z " fill="#1EA9DC" transform="translate(404,363)"/>
<path d="M0 0 C0.66 0 1.32 0 2 0 C2 0.66 2 1.32 2 2 C2.66 2.33 3.32 2.66 4 3 C2.35 3.33 0.7 3.66 -1 4 C-0.67 2.68 -0.34 1.36 0 0 Z " fill="#1487C1" transform="translate(595,565)"/>
<path d="M0 0 C0.33 0 0.66 0 1 0 C1 3.3 1 6.6 1 10 C0.67 10 0.34 10 0 10 C-0.389 8.713 -0.761 7.42 -1.125 6.125 C-1.438 5.046 -1.438 5.046 -1.758 3.945 C-1.838 3.303 -1.918 2.661 -2 2 C-1.34 1.34 -0.68 0.68 0 0 Z " fill="#0D5093" transform="translate(501,735)"/>
<path d="M0 0 C1.32 0.33 2.64 0.66 4 1 C3.01 2.65 2.02 4.3 1 6 C0.447 3.924 0 2.156 0 0 Z " fill="#0C498B" transform="translate(414,635)"/>
<path d="M0 0 C0.66 0.66 1.32 1.32 2 2 C1.625 5.125 1.625 5.125 1 8 C-1 5 -1 5 -0.625 2.312 C-0.419 1.549 -0.213 0.786 0 0 Z " fill="#3279AF" transform="translate(236,578)"/>
<path d="M0 0 C0.66 0 1.32 0 2 0 C1.688 2.375 1.688 2.375 1 5 C-0.485 5.99 -0.485 5.99 -2 7 C-1.34 4.69 -0.68 2.38 0 0 Z " fill="#40A6D4" transform="translate(301,337)"/>
<path d="M0 0 C1.32 0.99 2.64 1.98 4 3 C3.67 3.99 3.34 4.98 3 6 C2.01 5.34 1.02 4.68 0 4 C0 2.68 0 1.36 0 0 Z " fill="#3169A1" transform="translate(284,673)"/>
<path d="M0 0 C1.98 0.495 1.98 0.495 4 1 C4 1.66 4 2.32 4 3 C2.35 3.33 0.7 3.66 -1 4 C-0.67 2.68 -0.34 1.36 0 0 Z " fill="#218EC5" transform="translate(368,445)"/>
<path d="M0 0 C0.66 0 1.32 0 2 0 C0.25 4.875 0.25 4.875 -2 6 C-1.34 4.02 -0.68 2.04 0 0 Z " fill="#0E62A3" transform="translate(249,510)"/>
<path d="M0 0 C0.99 0.33 1.98 0.66 3 1 C3.688 3.062 3.688 3.062 4 5 C3.01 5.495 3.01 5.495 2 6 C1.34 4.02 0.68 2.04 0 0 Z " fill="#3A86BA" transform="translate(244,501)"/>
<path d="M0 0 C0.33 0.99 0.66 1.98 1 3 C0.01 3 -0.98 3 -2 3 C-2.33 2.34 -2.66 1.68 -3 1 C-2.01 0.67 -1.02 0.34 0 0 Z M-5 2 C-3 3 -3 3 -3 3 Z " fill="#E6E6E6" transform="translate(746,429)"/>
<path d="M0 0 C0.66 0.33 1.32 0.66 2 1 C1.67 2.65 1.34 4.3 1 6 C-0.062 4.125 -0.062 4.125 -1 2 C-0.67 1.34 -0.34 0.68 0 0 Z " fill="#1796CE" transform="translate(636,582)"/>
<path d="M0 0 C0.66 1.32 1.32 2.64 2 4 C1.01 4.33 0.02 4.66 -1 5 C-0.67 3.35 -0.34 1.7 0 0 Z " fill="#0E5FA1" transform="translate(608,345)"/>
<path d="M0 0 C0.66 0 1.32 0 2 0 C2 0.99 2 1.98 2 3 C1.01 2.67 0.02 2.34 -1 2 C-0.67 1.34 -0.34 0.68 0 0 Z " fill="#0C4E91" transform="translate(502,672)"/>
<path d="M0 0 C0.66 0 1.32 0 2 0 C1.67 0.99 1.34 1.98 1 3 C0.34 3 -0.32 3 -1 3 C-0.67 2.01 -0.34 1.02 0 0 Z " fill="#359CCD" transform="translate(348,406)"/>
</svg>